<svg id="Layer_1" data-name="Layer 1" xmlns="http://www.w3.org/2000/svg" xmlns:xlink="http://www.w3.org/1999/xlink" viewBox="0 0 77.04 31.09"><defs><style>.cls-1{fill:none;}.cls-2{clip-path:url(#clip-path);}.cls-3{fill:#f5f5f5;}</style><clipPath id="clip-path" transform="translate(0 0)"><rect class="cls-1" width="77.04" height="31.09"/></clipPath></defs><title>AmericanStandardLogoLight</title><g class="cls-2"><path class="cls-3" d="M15.38,7.51a59.48,59.48,0,0,0,7.23-5.43c2.37-2.18,2.67-2.21,3-2s.35.29.68.37c.55.14,1.14.66.87,1.29S24,6.71,23.7,7.46c0,0,1.78.45,1.8,1s-.28.32-.45.24a6.37,6.37,0,0,0-1.82-.21s-2.29,3.67-2.54,5.9a32.71,32.71,0,0,1,4.38.24c1,.24,1.41.17,1.88.86s.54,1.16.21,1.54a4.74,4.74,0,0,1-4,1.09,5.23,5.23,0,0,1-3.85-2,9.89,9.89,0,0,0-2.1.73,5.33,5.33,0,0,0-1.93,1.43s.26.34,2.22.79,5.67,1.44,7.56,4a2.16,2.16,0,0,1-.21,3,22.29,22.29,0,0,1-9.24,4.34c-2.05.44-4.92.79-6.23.34s-2.35-2-2-2.65,1.46-2.08,1.84-1.63a.29.29,0,0,1-.06.28c-.11.17-.94,1.69-.73,2.31s1.48.47,2.48.45a25.11,25.11,0,0,0,8.32-2.1c3.08-1.48,5-3.17,5-3.6s-.15-1.16-3.14-2.44a19.79,19.79,0,0,0-2.74-.84c-1.67-.46-2.92-.77-3.6-1.48A1.9,1.9,0,0,1,14.5,17a8.19,8.19,0,0,1,4.39-2.35S19,13,21.41,8.34c0,0-2.38,0-3.27,0,0,0-1,.11-1.11.11a57.14,57.14,0,0,1-6.79,4.13c-1.6.88-5.52,2.55-8,2.16C.25,14.46.09,13.4,0,13.13a.65.65,0,0,1,.22-.71A30.25,30.25,0,0,1,6.37,9.33a45.64,45.64,0,0,1,9-1.82m3.34-.23c1.07,0,3,0,3.15,0s.19-.15.28-.3l2.61-4.43c.15-.26,0-.27-.11-.15-3.55,3.15-6.08,4.86-5.93,4.86M13.43,8.85A30.49,30.49,0,0,0,5.08,11a12.9,12.9,0,0,0-3.87,2.18s2,.56,5.46-1,6.76-3.42,6.76-3.42m9.18,8.43c1.56,0,3.23-.56,3.45-1s-5.47-.33-5.44-.24c.21.69.43,1.22,2,1.26M27.23,7c0-.24,0-.37,0-.45s.26-.12.44-.07c.34.09,1.08.45,1.12.86,0,.21.11.35-.39,1.17,0,0-.12.18.18-.06s1.26-.91,1.56-1.09c.09,0,.42-.41.81-.1s.86.57.71.94c-.25.6-.69,1.4-.81,1.6,0,0,1.23-1.1,1.82-1.71a2.82,2.82,0,0,1,.76-.66.82.82,0,0,1,.64.05c.28.13.86.64.71,1-.09.25-1.07,2-1.29,2.57a3.86,3.86,0,0,0-.29,1.23c0,.14,0,.13.19.06a18.91,18.91,0,0,0,2.17-1.21,5.89,5.89,0,0,1,2.17-3.5A2.68,2.68,0,0,1,39.56,7a1.69,1.69,0,0,1,1.13.39,1.43,1.43,0,0,1-.16,1.94,13,13,0,0,1-3.24,2.23s-.38.92.06,1.11a7.24,7.24,0,0,0,1-.64,28.8,28.8,0,0,0,3.35-2.72c1.05-1.1,1.68-1.81,1.84-1.94a1,1,0,0,1,0-.71c.13-.37.4-.65.59-.68a1,1,0,0,1,1,.39c.38.46.32.64.28.81s-.11.4.08.5.81.27.94.81a.71.71,0,0,1-.21.71A21.61,21.61,0,0,0,44.52,12c-.14.41.29,0,.43,0a20.48,20.48,0,0,0,2.67-2,10.86,10.86,0,0,0,.9-1.26c.31-.46.71-1.09.85-1.26A.68.68,0,0,1,50,7.34a3.16,3.16,0,0,1,.53.27.65.65,0,0,1,.26.69,15.78,15.78,0,0,0-2.08,3.9c0,.15.9-.42,1.22-.58s1.74-1.11,1.92-1.25A18,18,0,0,1,53.63,8c.75-.64,1.72-1.51,2-1.43a2,2,0,0,1,1,.61.37.37,0,0,1,.08.3s.16.09.25.14a.5.5,0,0,1,.13.69c-.22.36-.77,1.06-1,1.09s-.42-.22-.35-.49.13-.49.17-.59,0-.19-.12-.08-2.36,2.11-2.63,4.18c0,0-.06.27.06.24a2.48,2.48,0,0,0,.5-.18,26.53,26.53,0,0,0,3.69-2.45s2-2.54,3.9-3.17a.59.59,0,0,1,.67.06,1.66,1.66,0,0,1,.83,1.26c0,.27.15,0,.22-.07s.28-.29.49-.15a2.08,2.08,0,0,1,.41.38c.1.11.31.31.19.54-.31.61-1.41,2.22-1.4,2.44s.32-.17.53-.33,3.15-2.76,3.66-3.26A12.5,12.5,0,0,1,68,6.8a.58.58,0,0,1,.58,0c.22.14.75.39.65.76-.34,1.26-.75,1.77-.65,1.76a15,15,0,0,0,1.32-1.1c.45-.34.94-.78,1.1-.86a.44.44,0,0,1,.48,0,3.43,3.43,0,0,0,.6.37.68.68,0,0,1,.39.78c-.19.61-1.49,3-1.53,3.23s0,.2.33.06,3.67-1.91,3.9-2,.13.52,0,.7a11.77,11.77,0,0,1-1.31,1A17.11,17.11,0,0,1,71,13.11a1.29,1.29,0,0,1-1-.18,1.15,1.15,0,0,1-.68-1,7.83,7.83,0,0,1,.76-2.39c.24-.4.14-.45,0-.33a18.66,18.66,0,0,0-2.06,2c-.41.58-1.11,1.68-1.21,1.86a.76.76,0,0,1-.86.39,1.32,1.32,0,0,1-.78-.52c-.07-.1,0-.2,0-.41a24.58,24.58,0,0,1,1.49-3c.22-.35.13-.34,0-.29s-3.47,3.1-4,3.42a.87.87,0,0,1-.76.19c-.31-.12-.73-.45-.77-.63a3.11,3.11,0,0,1,0-.94S59.43,12.8,59,13.06a1.25,1.25,0,0,1-1.2.14A1.91,1.91,0,0,1,57,12a2.37,2.37,0,0,1,0-.52,35.14,35.14,0,0,1-3.17,2,1.43,1.43,0,0,1-1.35-.11c-.31-.22-1.06-.83-.88-1.61,0,0,0-.07-.13,0a9.81,9.81,0,0,1-2.61,1.52,1.16,1.16,0,0,1-1.06-.49,1.15,1.15,0,0,1-.4-.74,1.72,1.72,0,0,1,0-.59,14.52,14.52,0,0,1-2.54,1.61c-.64.21-.71.16-1,0A1.83,1.83,0,0,1,43.08,12a3.86,3.86,0,0,1,.8-2.38c.3-.5.8-1.34.84-1.44s.09-.17-.07-.34-.18-.09-.25,0a26.93,26.93,0,0,1-3.31,3.48c-.28.24-2.45,2.31-3.76,2.22-.93-.06-1.52-1.21-1.54-1.28a15.32,15.32,0,0,1-2.15,1,1.31,1.31,0,0,1-1.39-.57,1.92,1.92,0,0,1-.43-1.5,9.68,9.68,0,0,1,.41-1.35A31.86,31.86,0,0,0,29.86,12c-.42.54-.61.9-.7,1a.51.51,0,0,1-.44.08,2.62,2.62,0,0,1-.61-.48c-.07-.09-.21-.21-.07-.7a16.2,16.2,0,0,1,1.64-3.15c.21-.41,0-.2-.11-.12s-1.62,1.37-2.14,1.9a16.63,16.63,0,0,0-2.21,2.7c-.22.37-.36.26-.56.21a1.7,1.7,0,0,1-.56-.31c-.17-.12-.39-.29-.23-.61s1.11-1.8,1.37-2.19L26.7,8.06A4.53,4.53,0,0,0,27.23,7m23.9-.32a.48.48,0,0,0,.45-.17A2.25,2.25,0,0,0,52,5.68c0-.24-.1-.36-.09-.44a.52.52,0,0,0-.26-.37c-.12,0-.19.14-.47.22a4.2,4.2,0,0,0-.8.65c-.11.13-.23.18-.18.28a1.54,1.54,0,0,0,.49.5,1.14,1.14,0,0,0,.48.14M37.55,10.05c-.06.11-.14.24.13.08A18.93,18.93,0,0,0,39.8,8.49c.16-.16.22-.31.2-.36s-.12,0-.18,0-1.27.11-2.28,2M62.13,8.88c.07-.24.09-.65-.06-.7s-.51.15-.91.36a6.48,6.48,0,0,0-2.67,3.26c-.25.58,0,.36.17.23a26.49,26.49,0,0,0,2.49-2.18c.26-.3,1-.89,1-1M24.75,18.7s.63.19,6.39-.63c0,0,.94-1.13,1.28-1.63s.7-1,.9-1.24.28-.49.76-.27.84.71.69,1.08a12.5,12.5,0,0,1-1.35,1.93,56,56,0,0,1,5.76-.21c1.45.14,2.3.38,2.54.89s.37.67.12.7c-.09,0-.24-.14-.37-.2a5.11,5.11,0,0,0-1.69-.23c-2.32.13-6.88.39-7.68.57,0,0-3.84,4.75-4.56,6.53-.15.38.24.09.52-.06s2.89-2,3.22-2.2a11.06,11.06,0,0,0,1-.83,11.93,11.93,0,0,1,2.59-2.26c.73-.46.71-.4,1.12-.24a1.6,1.6,0,0,1,1,.83c.14.34.2.28.3.24s.27-.09.52.24a1.25,1.25,0,0,1,.3,1c-.09.29-1.78,2.39-1.52,2.63.1.09.74-.48,1.11-.7a11.54,11.54,0,0,0,2.45-2.44c.57-.78.66-1.15.59-1.23s-.13-.17.21-.15,1.13.19,1.24.62a1,1,0,0,1-.16.83S43.48,21.22,44,21s.71-.3,1-.18.79.45.77.75a17.44,17.44,0,0,1-1.1,2c-.47.85-.88,1.73-.9,1.82s-.16.35.27.13A24.93,24.93,0,0,0,46.3,23.9s1.73-2.78,3.22-3.33c1.25-.46,1.93.16,2,.76l2.61-4.17c.4-.62.86-1.29.91-1.44s.17-.19.32-.13A2.35,2.35,0,0,1,56,16a.82.82,0,0,1,.24,1.07c-.83,1.22-2.64,4-3.24,5a15.79,15.79,0,0,0-1.48,3.27c0,.17,0,.25.13.18a17.15,17.15,0,0,0,2.1-1.42,10.42,10.42,0,0,1,3.63-3.3.93.93,0,0,1,1,.27,3.44,3.44,0,0,1,.65.67c0,.07.11-.3.41-.22a1,1,0,0,1,.57.38c.19.2.48.37.2.8a17.76,17.76,0,0,0-1.35,2.53c0,.21.11,0,.28-.13s3.24-3.5,3.57-3.93.26-.25.2-.37-.21-.45.19-1c.24-.35.87-.25,1.11-.11s.78.54.47,1-.13.7,0,.82a6.39,6.39,0,0,1,1,.64.64.64,0,0,1,0,.8,34.32,34.32,0,0,0-1.76,3c-.15.42.08.2.35,0s2.43-1.75,2.66-1.93a9.59,9.59,0,0,1,3.2-3.17,1.41,1.41,0,0,1,1.71,0,1.58,1.58,0,0,1,.49.66s2.72-4.44,3-4.78.32-.63.46-.53a2.07,2.07,0,0,0,.41.26.9.9,0,0,1,.43,1.2A58.92,58.92,0,0,0,72.4,25c-.22.47-.24.53-.1.5.41-.1,3.69-1.77,4.25-2.06s.43-.25.45-.14c.09.52,0,.57-.2.83s-3,1.93-3.46,2.27a2,2,0,0,1-1.61.36,1.76,1.76,0,0,1-1-1.18,1.63,1.63,0,0,1,.07-.64c0-.06,0-.12-.08,0-.27.32-1.43,1.51-1.56,1.65a1.22,1.22,0,0,1-1.43.39,1.6,1.6,0,0,1-1.08-1.33l-.29.2c-.24.18-.58.46-1,.7s-.68.4-1,.56A1,1,0,0,1,63.18,27c-.24-.23-.73-.68-.71-1.18a3.7,3.7,0,0,1,.47-1.54c.3-.63.69-1.42.88-1.76s.26-.42.14-.61-.2-.26-.3-.1c0,0-.59.7-1.28,1.44s-1.87,2-2,2.18a15.22,15.22,0,0,1-1.18,1.11.56.56,0,0,1-.45.15,1.57,1.57,0,0,1-1.1-.88,2.09,2.09,0,0,1-.06-.78s-1.9,1.54-2.37,1.79a.92.92,0,0,1-1.13,0,1.93,1.93,0,0,1-.66-1.26,11.33,11.33,0,0,1-1.36.93,1.36,1.36,0,0,1-1-.17,2,2,0,0,1-.89-.79,1.46,1.46,0,0,1,0-.73,7.85,7.85,0,0,1-2,1.85,1.28,1.28,0,0,1-1.45.19c-.65-.36-.83-.6-.87-.89a.86.86,0,0,1,.07-.52,14.68,14.68,0,0,1-1.26.86,1.27,1.27,0,0,1-1.14.06,1.82,1.82,0,0,1-1-1,2.53,2.53,0,0,1,.29-1.78c.33-.64.55-1.11.68-1.33s0-.12-.11-.06-1.67,1.26-2,1.61a14.69,14.69,0,0,0-2.18,2.8c-.22.43-.29.51-.54.43s-.8-.53-.83-.81.06-.38.26-.71l-.66.43c-.26.17-.62.51-1.08.33a1.72,1.72,0,0,1-.85-.81,1.89,1.89,0,0,1-.07-.72c0-.15,0-.15-.09,0s-1.41,1.38-1.59,1.56-.78.9-1.3.71a2.19,2.19,0,0,1-1.09-.85,1.89,1.89,0,0,1-.09-1l-1.53,1c-.29.2-2.11,1.36-2.65,1.19a1.67,1.67,0,0,1-1-1.23,3.15,3.15,0,0,1,.49-1.63,53.74,53.74,0,0,1,3.25-4.76s.08-.14-.16-.1-2.89.33-3.29.36-1,.11-1.28-.36-.38-.92-.29-.95M36.63,22c.07-.24-.29-.29-.45-.34s-.43.1-.83.36a7.36,7.36,0,0,0-2.59,3.23c-.23.59,0,.35.19.22a22.59,22.59,0,0,0,2.4-2.21c.26-.3,1.25-1.18,1.28-1.26m22,.42c0-.24-.13-.3-.27-.32a2.79,2.79,0,0,0-1.17.54,6.8,6.8,0,0,0-2.4,2.89c-.22.59,0,.41.22.29a18.41,18.41,0,0,0,2.45-2,10.81,10.81,0,0,0,1.16-1.36m-7.51-.54c.06-.07.06-.13,0-.19a2.14,2.14,0,0,0-1.11.4,12.49,12.49,0,0,0-2.64,3.08c-.51,1-.23.72.17.49a17.91,17.91,0,0,0,2.81-2.59c.32-.51.78-1.19.78-1.19m20.5.52c.11-.16.1-.45,0-.49s-.79.24-1.29.55A6.41,6.41,0,0,0,68.19,25c-.43,1.15-.22.91.18.68a35.62,35.62,0,0,0,3.3-3.23" transform="translate(0 0)"/></g></svg>