<svg id="Layer_1" data-name="Layer 1" xmlns="http://www.w3.org/2000/svg" viewBox="0 0 88.61 22.07"><defs><style>.cls-1{fill:#f5f5f5;}</style></defs><title>GossLogoLight</title><rect class="cls-1" x="53.45" y="0.53" width="34.62" height="2.06"/><rect class="cls-1" x="53.45" y="4.61" width="34.62" height="2.06"/><rect class="cls-1" x="53.45" y="8.69" width="34.62" height="2.06"/><rect class="cls-1" x="53.45" y="12.78" width="34.62" height="2.06"/><path class="cls-1" d="M8.7,5.54l3.66-.59A6.05,6.05,0,0,0,6.16,0C1.35,0,0,4.62,0,7.42,0,10.82,1.73,15,6.13,15A4.58,4.58,0,0,0,10,13.18l1.12,1.55h1.15V7.42H6.47V10h2.2A2.25,2.25,0,0,1,6.4,12C4.33,12,4,9.6,4,7.31s.37-4.43,2.4-4.43S8.7,5.54,8.7,5.54"/><path class="cls-1" d="M19.75.07c-4.91,0-6.5,4-6.5,7.5S15,15,19.51,15,26,11.34,26,7.42c0-4.1-2.2-7.35-6.23-7.35m-.14,12.08c-1.46,0-2.41-1.18-2.41-4.69s1-4.54,2.47-4.54,2.27,1.22,2.27,4.54-.88,4.69-2.34,4.69"/><path class="cls-1" d="M34.61,4.39l2.2-2S35.53.18,31.87.18,26.52,2.47,26.52,5s1.83,3.51,4.13,4.14,3.08,1,3.08,1.74-.95,1.22-2.17,1.22a4.09,4.09,0,0,1-3.29-1.81l-2.3,2a6.32,6.32,0,0,0,5.66,2.84c4.13,0,5.89-2.44,5.89-4.73s-.81-3.88-4.17-4.62S30.21,4.39,30.21,4s.34-1,1.69-1a3.28,3.28,0,0,1,2.71,1.33"/><path class="cls-1" d="M46.4,4.39l2.2-2S47.31.18,43.66.18,38.3,2.47,38.3,5s1.83,3.51,4.13,4.14,3.08,1,3.08,1.74-.95,1.22-2.17,1.22a4.1,4.1,0,0,1-3.29-1.81l-2.3,2a6.32,6.32,0,0,0,5.66,2.84c4.13,0,5.89-2.44,5.89-4.73s-.81-3.88-4.17-4.62S42,4.39,42,4s.34-1,1.69-1A3.27,3.27,0,0,1,46.4,4.39"/><path class="cls-1" d="M49.28,1.73a1.62,1.62,0,1,1,1.63,1.63,1.62,1.62,0,0,1-1.63-1.63m3,0a1.34,1.34,0,1,0-1.33,1.34,1.33,1.33,0,0,0,1.33-1.34m-1.68.11v.82h-.3V.76h.62c.35,0,.71.1.71.53a.44.44,0,0,1-.39.44h0c.26.05.29.17.32.38a2.65,2.65,0,0,0,.11.55h-.38c0-.11-.05-.23-.07-.34a.72.72,0,0,0-.11-.4c-.07-.08-.17-.07-.28-.08Zm.32-.3c.28,0,.34-.12.34-.27s-.06-.22-.3-.22h-.36v.49Z"/><path class="cls-1" d="M2.87,18.23H4V22H3.27V19.44c0-.07,0-.17,0-.3s0-.23,0-.3L2.56,22H1.81l-.7-3.13c0,.07,0,.17,0,.3s0,.23,0,.3V22H.38V18.23H1.52l.68,2.94Z"/><path class="cls-1" d="M5.68,18.23h.88L7.88,22H7l-.25-.77H5.42L5.16,22H4.35Zm-.05,2.32h1l-.47-1.47Z"/><polygon class="cls-1" points="8.24 18.23 9.06 18.23 10.54 20.83 10.54 18.23 11.27 18.23 11.27 21.96 10.49 21.96 8.97 19.32 8.97 21.96 8.24 21.96 8.24 18.23"/><path class="cls-1" d="M11.9,18.23h.79v2.29a1.31,1.31,0,0,0,.09.56.6.6,0,0,0,.62.31.6.6,0,0,0,.61-.31,1.31,1.31,0,0,0,.09-.56V18.23h.79v2.3a1.92,1.92,0,0,1-.18.93,1.37,1.37,0,0,1-1.31.61,1.38,1.38,0,0,1-1.32-.61,1.91,1.91,0,0,1-.18-.93Z"/><polygon class="cls-1" points="15.54 18.23 18.2 18.23 18.2 18.89 16.31 18.89 16.31 19.75 17.97 19.75 17.97 20.4 16.31 20.4 16.31 21.96 15.54 21.96 15.54 18.23"/><path class="cls-1" d="M19.39,18.23h.88L21.59,22h-.85l-.25-.77H19.13l-.25.77h-.82Zm-.05,2.32h1l-.47-1.47Z"/><path class="cls-1" d="M22.32,18.62a1.74,1.74,0,0,1,2.51.16,1.35,1.35,0,0,1,.26.7h-.78a1,1,0,0,0-.19-.41.77.77,0,0,0-.62-.24.76.76,0,0,0-.66.34,1.67,1.67,0,0,0-.24,1,1.47,1.47,0,0,0,.25.94.79.79,0,0,0,.64.31.73.73,0,0,0,.61-.27,1.18,1.18,0,0,0,.19-.43h.77a1.68,1.68,0,0,1-.51,1,1.49,1.49,0,0,1-1.06.38,1.59,1.59,0,0,1-1.25-.52,2.08,2.08,0,0,1-.46-1.42,2.06,2.06,0,0,1,.52-1.51"/><polygon class="cls-1" points="28.32 18.23 28.32 18.89 27.2 18.89 27.2 21.96 26.42 21.96 26.42 18.89 25.29 18.89 25.29 18.23 28.32 18.23"/><path class="cls-1" d="M28.67,18.23h.79v2.29a1.31,1.31,0,0,0,.09.56.76.76,0,0,0,1.23,0,1.31,1.31,0,0,0,.09-.56V18.23h.79v2.3a1.92,1.92,0,0,1-.18.93,1.37,1.37,0,0,1-1.31.61,1.38,1.38,0,0,1-1.32-.61,1.91,1.91,0,0,1-.18-.93Z"/><path class="cls-1" d="M34.7,18.33a.92.92,0,0,1,.35.26,1.15,1.15,0,0,1,.19.31,1,1,0,0,1,.07.39,1.13,1.13,0,0,1-.13.52.75.75,0,0,1-.44.36.7.7,0,0,1,.37.29,1.22,1.22,0,0,1,.11.58v.25a1.84,1.84,0,0,0,0,.35.31.31,0,0,0,.14.21V22h-.86c0-.08,0-.15-.05-.2a1.89,1.89,0,0,1,0-.32V21.1a.72.72,0,0,0-.12-.48.63.63,0,0,0-.44-.12h-.76V22h-.76V18.23h1.79a1.65,1.65,0,0,1,.59.1m-1.61.55v1h.84a.91.91,0,0,0,.38-.06.42.42,0,0,0,.22-.42.47.47,0,0,0-.21-.46.77.77,0,0,0-.36-.07Z"/><polygon class="cls-1" points="38.72 18.89 36.74 18.89 36.74 19.68 38.55 19.68 38.55 20.33 36.74 20.33 36.74 21.29 38.81 21.29 38.81 21.96 35.98 21.96 35.98 18.23 38.72 18.23 38.72 18.89"/><path class="cls-1" d="M41.7,18.33a.92.92,0,0,1,.35.26,1.15,1.15,0,0,1,.19.31,1,1,0,0,1,.07.39,1.13,1.13,0,0,1-.13.52.75.75,0,0,1-.44.36.7.7,0,0,1,.37.29,1.22,1.22,0,0,1,.11.58v.25a1.84,1.84,0,0,0,0,.35.31.31,0,0,0,.14.21V22h-.86c0-.08,0-.15-.05-.2a1.79,1.79,0,0,1,0-.32V21.1a.72.72,0,0,0-.12-.48.63.63,0,0,0-.44-.12h-.76V22h-.76V18.23h1.79a1.65,1.65,0,0,1,.59.1m-1.61.55v1h.84a.91.91,0,0,0,.38-.06.42.42,0,0,0,.22-.42.47.47,0,0,0-.21-.46.77.77,0,0,0-.36-.07Z"/><path class="cls-1" d="M47.17,21.63a1.93,1.93,0,0,1-2.45,0,2,2,0,0,1-.57-1.54,2,2,0,0,1,.57-1.54,1.94,1.94,0,0,1,2.45,0,2,2,0,0,1,.57,1.54,2,2,0,0,1-.57,1.54m-.49-.57a1.87,1.87,0,0,0,0-1.94.89.89,0,0,0-.74-.34.9.9,0,0,0-.74.34,1.85,1.85,0,0,0,0,1.94.9.9,0,0,0,.74.34.89.89,0,0,0,.74-.34"/><polygon class="cls-1" points="48.22 18.23 50.88 18.23 50.88 18.89 49 18.89 49 19.75 50.65 19.75 50.65 20.4 49 20.4 49 21.96 48.22 21.96 48.22 18.23"/><polygon class="cls-1" points="55.34 18.23 55.34 18.89 54.22 18.89 54.22 21.96 53.44 21.96 53.44 18.89 52.31 18.89 52.31 18.23 55.34 18.23"/><path class="cls-1" d="M58.47,21.63a1.93,1.93,0,0,1-2.45,0,2,2,0,0,1-.57-1.54A2,2,0,0,1,56,18.55a1.94,1.94,0,0,1,2.45,0A2,2,0,0,1,59,20.09a2,2,0,0,1-.57,1.54M58,21.06a1.87,1.87,0,0,0,0-1.94.89.89,0,0,0-.74-.34.9.9,0,0,0-.74.34,1.85,1.85,0,0,0,0,1.94.9.9,0,0,0,.74.34.89.89,0,0,0,.74-.34"/><path class="cls-1" d="M61.92,18.33a.92.92,0,0,1,.35.26,1.15,1.15,0,0,1,.19.31,1,1,0,0,1,.07.39,1.13,1.13,0,0,1-.13.52.75.75,0,0,1-.44.36.7.7,0,0,1,.37.29,1.22,1.22,0,0,1,.11.58v.25a1.84,1.84,0,0,0,0,.35.31.31,0,0,0,.14.21V22h-.86c0-.08,0-.15-.05-.2a1.89,1.89,0,0,1,0-.32V21.1a.72.72,0,0,0-.12-.48.63.63,0,0,0-.44-.12h-.76V22h-.76V18.23h1.79a1.65,1.65,0,0,1,.59.1m-1.61.55v1h.84a.91.91,0,0,0,.38-.06.42.42,0,0,0,.22-.42.47.47,0,0,0-.21-.46.77.77,0,0,0-.36-.07Z"/><path class="cls-1" d="M63.53,18.62a1.74,1.74,0,0,1,2.51.16,1.35,1.35,0,0,1,.26.7h-.78a1,1,0,0,0-.19-.41.77.77,0,0,0-.62-.24.76.76,0,0,0-.66.34,1.67,1.67,0,0,0-.24,1,1.47,1.47,0,0,0,.25.94.79.79,0,0,0,.64.31.73.73,0,0,0,.61-.27,1.18,1.18,0,0,0,.19-.43h.77a1.68,1.68,0,0,1-.51,1,1.49,1.49,0,0,1-1.06.38,1.59,1.59,0,0,1-1.25-.52A2.08,2.08,0,0,1,63,20.13a2.06,2.06,0,0,1,.52-1.51"/><polygon class="cls-1" points="66.81 21.96 66.81 18.23 67.58 18.23 67.58 19.65 69.04 19.65 69.04 18.23 69.81 18.23 69.81 21.96 69.04 21.96 69.04 20.3 67.58 20.3 67.58 21.96 66.81 21.96"/><polygon class="cls-1" points="74.51 18.23 74.51 18.89 73.39 18.89 73.39 21.96 72.61 21.96 72.61 18.89 71.48 18.89 71.48 18.23 74.51 18.23"/><path class="cls-1" d="M77.64,21.63a1.93,1.93,0,0,1-2.45,0,2,2,0,0,1-.57-1.54,2,2,0,0,1,.57-1.54,1.94,1.94,0,0,1,2.45,0,2,2,0,0,1,.57,1.54,2,2,0,0,1-.57,1.54m-.49-.57a1.87,1.87,0,0,0,0-1.94.89.89,0,0,0-.74-.34.9.9,0,0,0-.74.34,1.85,1.85,0,0,0,0,1.94.9.9,0,0,0,.74.34.89.89,0,0,0,.74-.34"/><path class="cls-1" d="M81.57,21.63a1.93,1.93,0,0,1-2.45,0,2,2,0,0,1-.57-1.54,2,2,0,0,1,.57-1.54,1.94,1.94,0,0,1,2.45,0,2,2,0,0,1,.57,1.54,2,2,0,0,1-.57,1.54m-.49-.57a1.87,1.87,0,0,0,0-1.94.89.89,0,0,0-.74-.34.9.9,0,0,0-.74.34,1.85,1.85,0,0,0,0,1.94.9.9,0,0,0,.74.34.89.89,0,0,0,.74-.34"/><polygon class="cls-1" points="82.63 18.23 83.41 18.23 83.41 21.29 85.27 21.29 85.27 21.96 82.63 21.96 82.63 18.23"/><path class="cls-1" d="M86.26,20.81a.76.76,0,0,0,.14.38.83.83,0,0,0,.66.23,1.44,1.44,0,0,0,.46-.06.43.43,0,0,0,.33-.43.32.32,0,0,0-.16-.29,1.78,1.78,0,0,0-.52-.18l-.4-.09a2.5,2.5,0,0,1-.82-.29.91.91,0,0,1-.38-.81,1.07,1.07,0,0,1,.37-.83A1.58,1.58,0,0,1,87,18.12a1.67,1.67,0,0,1,1,.31,1.12,1.12,0,0,1,.44.91h-.75a.53.53,0,0,0-.3-.48,1,1,0,0,0-.46-.1.89.89,0,0,0-.49.12.39.39,0,0,0-.18.34.32.32,0,0,0,.18.3,2.25,2.25,0,0,0,.5.15l.65.15a1.68,1.68,0,0,1,.65.27.91.91,0,0,1,.33.76,1.07,1.07,0,0,1-.39.85,1.67,1.67,0,0,1-1.12.34,1.83,1.83,0,0,1-1.16-.33,1.1,1.1,0,0,1-.42-.92Z"/></svg>