<svg id="Layer_1" data-name="Layer 1" xmlns="http://www.w3.org/2000/svg" viewBox="0 0 106.22 25.94"><defs><style>.cls-1{fill:#f5f5f5;}</style></defs><title>SafetyTubsLogo</title><path class="cls-1" d="M59.25,3.59c-.08,0-6.78-2.58-9.56,7h-.06c-3-9.57-9.48-6.94-9.56-7s8.63.55,9.28,7c-2-5.24-9.19-4.94-9.28-5s9.75.48,9.32,7.8a.24.24,0,0,0,.24.24h.07a.24.24,0,0,0,.24-.24c-.21-7.64,9.45-7.83,9.32-7.8S52,5.39,50,10.62c.65-6.48,9.4-7.06,9.28-7"/><path class="cls-1" d="M49.65,5.2a.75.75,0,1,0-.76-.75.75.75,0,0,0,.76.75"/><path class="cls-1" d="M49.65,2.52a.45.45,0,1,0-.45-.45.45.45,0,0,0,.45.45"/><path class="cls-1" d="M49.65.54a.27.27,0,1,0-.27-.27.27.27,0,0,0,.27.27"/><path class="cls-1" d="M.25,25.44c-.23-.13-.25-.2-.25-.7,0-.93.07-1.67.08-2s0-.3.13-.3.12.06.12.2a3.62,3.62,0,0,0,0,.69,2.3,2.3,0,0,0,2.47,1.89,2.35,2.35,0,0,0,2.39-2.46c0-1.28-.48-2-1.92-3.34l-.75-.69C.8,17.15.4,16,.4,14.74a3.19,3.19,0,0,1,3.45-3.33,5.82,5.82,0,0,1,1.55.18,2.46,2.46,0,0,0,.58.09c.13,0,.17,0,.17.13s-.07.71-.07,2c0,.29,0,.43-.12.43s-.12-.09-.13-.24A3.55,3.55,0,0,0,5.62,13c-.1-.2-.55-1-2.08-1a2,2,0,0,0-2.05,2.15c0,1.06.43,1.72,2,3.11l.47.41c2,1.72,2.43,2.87,2.43,4.35A4,4,0,0,1,5,25.16a4.06,4.06,0,0,1-2.52.78,4.64,4.64,0,0,1-2.24-.5"/><path class="cls-1" d="M12.26,14.07c.18-.52.25-.61.35-.61s.2.22.35.58c.27.67,2.62,7.17,3.52,9.56.53,1.41.93,1.61,1.25,1.72a1.86,1.86,0,0,0,.58.09c.08,0,.18,0,.18.13s-.17.13-.33.13-1.3,0-2.32,0c-.28,0-.52,0-.52-.11s0-.08.1-.11a.31.31,0,0,0,.13-.43l-1.32-3.61c0-.07-.05-.09-.13-.09H10.73c-.07,0-.12,0-.15.13l-.83,2.52A3.58,3.58,0,0,0,9.53,25c0,.32.25.43.5.43h.13c.12,0,.15.05.15.13s-.08.13-.22.13c-.35,0-1.15-.06-1.32-.06s-.88.06-1.48.06c-.18,0-.28,0-.28-.13a.13.13,0,0,1,.13-.13l.43,0c.67-.09,1-.65,1.23-1.45l3.45-9.86m1.63,6.56c.07,0,.07,0,.05-.11l-1.45-4.32c-.08-.24-.17-.24-.25,0l-1.37,4.32c0,.07,0,.11.05.11Z"/><path class="cls-1" d="M20,18.32c0-2.45,0-2.89,0-3.39s-.12-.8-.6-.87l-.5,0a.15.15,0,0,1-.12-.13c0-.09.07-.13.23-.13.67,0,1.58,0,1.67,0,.28,0,3.47,0,3.8,0a2.7,2.7,0,0,0,.67-.07c.09,0,.15-.09.2-.09s.1.07.1.15-.07.29-.12.74c0,.15,0,.85-.07,1s-.07.17-.13.17-.12-.07-.12-.19a1.83,1.83,0,0,0-.13-.59,1.06,1.06,0,0,0-1-.46l-2.4,0c-.08,0-.12,0-.12.17v4.3c0,.09,0,.15.1.15l2,0c.25,0,.47,0,.67,0,.35,0,.55-.09.68-.28s.13-.17.18-.17.08.06.08.13a7.33,7.33,0,0,0-.13.87c0,.32-.05.95-.05,1.06s0,.32-.13.32-.1-.07-.1-.15a2.47,2.47,0,0,0-.1-.57c-.07-.22-.3-.43-.75-.5s-2.1,0-2.35,0c-.08,0-.1,0-.1.15V21.1c0,1.56,0,2.8.07,3.41s.13.76.53.84a5.46,5.46,0,0,0,.67.07.12.12,0,0,1,.12.13c0,.07-.07.13-.23.13-.82,0-1.77-.06-1.84-.06s-1,.06-1.45.06c-.15,0-.23,0-.23-.13a.12.12,0,0,1,.12-.13,3.94,3.94,0,0,0,.45-.07c.28-.06.32-.37.38-.84.08-.65.08-1.89.08-3.41V18.32"/><path class="cls-1" d="M28.52,18.32c0-2.45,0-2.89,0-3.39s-.12-.8-.6-.87l-.5,0a.15.15,0,0,1-.12-.13c0-.09.07-.13.23-.13.67,0,1.62,0,1.7,0s3.17,0,3.5,0a6.11,6.11,0,0,0,.67-.09c.07,0,.13-.07.2-.07s.07.07.07.15-.08.29-.12.74c0,.15-.05.85-.08,1s-.07.17-.13.17-.12-.07-.12-.2a1.9,1.9,0,0,0-.08-.56c-.1-.26-.25-.37-1-.48-.25,0-2-.06-2.12-.06s-.08.06-.08.17v4.28c0,.11,0,.17.08.17s2.12,0,2.45,0,.57-.05.72-.22.17-.2.22-.2.08,0,.08.13-.08.35-.12.87c0,.32-.07.91-.07,1s0,.29-.13.29-.1-.05-.1-.15a1.54,1.54,0,0,0-.07-.52c0-.22-.18-.41-.75-.48-.4-.06-2-.07-2.22-.07-.08,0-.1.06-.1.11V21.1c0,.54,0,2.37,0,2.69,0,1.06.3,1.26,1.75,1.26a4.42,4.42,0,0,0,1.47-.17,1.19,1.19,0,0,0,.67-1.09c0-.19.07-.24.15-.24s.1.13.1.24a14.35,14.35,0,0,1-.2,1.52c-.1.41-.25.41-.82.41-1.1,0-2,0-2.55-.06s-1,0-1.22,0l-.63,0c-.28,0-.62,0-.85,0s-.23,0-.23-.13a.12.12,0,0,1,.12-.13,3.93,3.93,0,0,0,.45-.07c.28-.06.32-.37.38-.84.08-.65.08-1.89.08-3.41V18.32"/><path class="cls-1" d="M40.5,21.1c0,1.52,0,2.76.07,3.41,0,.46.12.76.57.84a5.13,5.13,0,0,0,.67.07c.1,0,.12.07.12.13s-.07.13-.24.13c-.8,0-1.73-.06-1.82-.06s-1.08.06-1.52.06c-.17,0-.23,0-.23-.13a.11.11,0,0,1,.12-.11,1.77,1.77,0,0,0,.43-.07c.3-.07.39-.39.43-.85.07-.65.07-1.89.07-3.41V14.48l-2.12,0c-.92,0-1.27.13-1.48.5a2.59,2.59,0,0,0-.23.5c0,.13-.08.15-.15.15a.12.12,0,0,1-.1-.13c0-.17.3-1.57.32-1.71s.1-.3.15-.3a4.71,4.71,0,0,0,.65.18,10.91,10.91,0,0,0,1.15.08h5.54a6.33,6.33,0,0,0,1.05-.08c.22,0,.35-.07.42-.07s.07.09.07.18c0,.48-.05,1.61-.05,1.8s-.07.21-.13.21-.1-.06-.12-.28l0-.17c-.05-.48-.37-.83-1.77-.87l-1.83,0V21.1"/><path class="cls-1" d="M49.06,21.58A3.05,3.05,0,0,0,48.74,20c-.12-.24-2.1-3.74-2.6-4.58a4,4,0,0,0-1-1.15,1.34,1.34,0,0,0-.62-.22.15.15,0,0,1-.15-.15c0-.07,0-.11.18-.11l1.45,0c.1,0,.7,0,1.27,0,.17,0,.2,0,.2.11s-.1.11-.23.17a.27.27,0,0,0-.18.26,1.38,1.38,0,0,0,.2.61L50,19.82c.3-.67,2.14-4,2.4-4.56a1.82,1.82,0,0,0,.25-.82c0-.22-.07-.35-.23-.41s-.22-.11-.22-.19.08-.09.23-.09c.38,0,.9,0,1,0l1.43,0c.1,0,.18,0,.18.09a.18.18,0,0,1-.18.17,1.38,1.38,0,0,0-.68.2,2.67,2.67,0,0,0-.73.78c-.48.63-2.55,4.33-2.85,5a3.47,3.47,0,0,0-.18,1.57v1.35c0,.26,0,.93,0,1.57,0,.46.13.76.57.84a5.12,5.12,0,0,0,.67.07.12.12,0,0,1,.12.13c0,.07-.08.13-.23.13-.82,0-1.77-.06-1.85-.06s-1,.06-1.43.06c-.17,0-.23,0-.23-.13a.12.12,0,0,1,.12-.13,1.77,1.77,0,0,0,.43-.07c.3-.07.4-.37.43-.84,0-.65,0-1.31,0-1.57V21.58"/><path class="cls-1" d="M65.52,20.3c0,1.78,0,3.25.08,4,.05.54.15.95.65,1a6.6,6.6,0,0,0,.75.07c.1,0,.13.05.13.11s-.08.15-.27.15c-.92,0-2-.06-2.05-.06s-1.14.06-1.64.06c-.18,0-.27,0-.27-.15s0-.11.13-.11a2.34,2.34,0,0,0,.5-.07c.33-.07.42-.48.48-1,.08-.78.08-2.24.08-4V12.46l-2.47,0c-1,0-1.43.15-1.7.59a3.39,3.39,0,0,0-.28.58c-.05.15-.1.18-.17.18s-.08-.06-.08-.17.33-1.78.37-1.93.1-.35.17-.35a2.92,2.92,0,0,0,.73.22c.48.06,1.12.09,1.32.09h6.26a6,6,0,0,0,1.18-.09c.25,0,.4-.09.47-.09s.08.11.08.22c0,.56-.05,1.84-.05,2s0,.24-.12.24-.12-.06-.13-.32l0-.21c0-.55-.45-1-2.05-1l-2.1,0V20.3"/><path class="cls-1" d="M71.95,18.32c0-2.45,0-2.89,0-3.39s-.12-.8-.6-.87l-.5,0a.15.15,0,0,1-.11-.13c0-.09.07-.13.23-.13.67,0,1.55,0,1.68,0s1.05,0,1.48,0c.17,0,.25,0,.25.13a.15.15,0,0,1-.13.13,1.55,1.55,0,0,0-.37,0c-.38.07-.47.35-.5.87s0,.94,0,3.39v2.21c0,2.28.45,3.22,1.08,3.85a2.69,2.69,0,0,0,2.19.85,2.89,2.89,0,0,0,2.27-1.11,6.3,6.3,0,0,0,.84-3.82v-2c0-2.45,0-2.89,0-3.39s-.1-.8-.58-.87l-.5,0a.13.13,0,0,1-.12-.13c0-.09.07-.13.23-.13.65,0,1.5,0,1.59,0s.8,0,1.23,0c.17,0,.23,0,.23.13a.13.13,0,0,1-.12.13,1.55,1.55,0,0,0-.37,0c-.4.09-.48.35-.52.87s0,.94,0,3.39V20c0,1.71-.2,3.61-1.37,4.72a4.16,4.16,0,0,1-3.07,1.15,4.27,4.27,0,0,1-3.05-1.11c-.72-.74-1.28-1.84-1.28-4.13V18.32"/><path class="cls-1" d="M84.49,18.32c0-2.45,0-2.89,0-3.39s-.12-.83-.6-.91l-.5,0s-.12,0-.12-.09.07-.13.23-.13c.67,0,1.62,0,1.7,0,.35,0,1,0,1.72,0,2.45,0,3.09,1.57,3.09,2.41a3.82,3.82,0,0,1-1.48,2.76,3.63,3.63,0,0,1,2.59,3.28,3.42,3.42,0,0,1-3.69,3.5c-.27,0-.8,0-1.27-.06l-1,0-.6,0c-.3,0-.65,0-.88,0s-.23,0-.23-.13,0-.09.12-.09a3.86,3.86,0,0,0,.45-.07c.28-.06.32-.41.38-.87.08-.65.08-1.89.08-3.41V18.32m1.27.33c0,.11,0,.15.1.17a4.2,4.2,0,0,0,.9.07c.82,0,1.13,0,1.43-.41a2.57,2.57,0,0,0,.57-1.68c0-1.21-.6-2.54-2.07-2.54a3.85,3.85,0,0,0-.75.07c-.13,0-.18.07-.18.17Zm0,1.74c0,1.22,0,3.12,0,3.35.05.76.05.95.5,1.19a3.16,3.16,0,0,0,1.28.22c1,0,2.15-.41,2.15-2.43a3.58,3.58,0,0,0-1.4-2.87A2.86,2.86,0,0,0,87,19.45a11.47,11.47,0,0,0-1.15,0s-.08,0-.08.11Z"/><path class="cls-1" d="M93.08,25.45c-.2-.11-.22-.17-.22-.59,0-.78.07-1.41.08-1.67s0-.26.12-.26.13.06.13.18a2.57,2.57,0,0,0,.05.57,2.15,2.15,0,0,0,2.32,1.56,2,2,0,0,0,2.2-2.09c0-1.13-.55-1.67-1.85-2.74l-.67-.56c-1.58-1.32-2.1-2.28-2.1-3.37,0-1.85,1.32-3,3.25-3a6.54,6.54,0,0,1,1.52.18,1.68,1.68,0,0,0,.52.08c.11,0,.15,0,.15.11s-.07.59-.07,1.67c0,.24,0,.35-.12.35s-.12-.07-.13-.2a3.13,3.13,0,0,0-.22-.78c-.1-.19-.58-.78-1.9-.78a1.74,1.74,0,0,0-2,1.7c0,1,.45,1.58,1.9,2.67l.42.32c1.79,1.35,2.4,2.45,2.4,3.8a3.17,3.17,0,0,1-1.37,2.69,4.13,4.13,0,0,1-2.33.56,4.91,4.91,0,0,1-2.14-.43"/><path class="cls-1" d="M102.95,12.85c0-.58,0-.68,0-.8s0-.18-.16-.21h-.12l0,0,.06,0h.85a1.14,1.14,0,0,1,.68.16.64.64,0,0,1,.26.5,1.14,1.14,0,0,1-.45.85c.3.39.55.72.77.95a.77.77,0,0,0,.45.26h.14l0,0s0,0-.09,0h-.26a.74.74,0,0,1-.39-.07,1.89,1.89,0,0,1-.5-.54l-.4-.55,0,0h-.46l0,0v.09c0,.36,0,.65,0,.8s0,.19.15.2l.17,0,0,0-.06,0h-.8l-.06,0,0,0,.11,0c.07,0,.09-.1.11-.2s0-.45,0-.8v-.65m.3.32,0,0a1,1,0,0,0,.39.06.49.49,0,0,0,.28-.07.68.68,0,0,0,.23-.57c0-.46-.24-.74-.64-.74a1.13,1.13,0,0,0-.25,0l0,0Z"/><path class="cls-1" d="M106.15,13.26h-.07a2.23,2.23,0,1,1-.65-1.57,2.22,2.22,0,0,1,.65,1.57h.13a2.36,2.36,0,1,0-2.36,2.36,2.36,2.36,0,0,0,2.36-2.36h-.07"/></svg>