<svg xmlns="http://www.w3.org/2000/svg" viewBox="0 0 145.57 53.38"><defs><style>.cls-1{fill:#112252;}</style></defs><title>SuperGreenDark</title><g id="Layer_2" data-name="Layer 2"><g id="Layer_3" data-name="Layer 3"><path class="cls-1" d="M66.56,21.15H58.74a.27.27,0,0,0-.27.29,14.3,14.3,0,0,0,.59,3,.27.27,0,0,0,.36.16l7.23-3A.26.26,0,0,0,66.56,21.15Z"/><path class="cls-1" d="M66.66,18.7l-7.23-3a.27.27,0,0,0-.36.16,14.31,14.31,0,0,0-.59,3,.27.27,0,0,0,.27.29h7.81A.26.26,0,0,0,66.66,18.7Z"/><path class="cls-1" d="M67.72,16.49l-5.55-5.55a.27.27,0,0,0-.39,0A14.37,14.37,0,0,0,60,13.55a.27.27,0,0,0,.14.37l7.26,3A.26.26,0,0,0,67.72,16.49Z"/><path class="cls-1" d="M69.44,14.74l-3-7.13a.27.27,0,0,0-.37-.13,14.38,14.38,0,0,0-2.51,1.69.27.27,0,0,0,0,.39L69,15A.26.26,0,0,0,69.44,14.74Z"/><path class="cls-1" d="M76.56,15,82,9.56a.27.27,0,0,0,0-.39A14.38,14.38,0,0,0,79.5,7.48a.27.27,0,0,0-.37.13l-3,7.13A.26.26,0,0,0,76.56,15Z"/><path class="cls-1" d="M85.53,13.55A14.38,14.38,0,0,0,83.79,11a.27.27,0,0,0-.39,0l-5.55,5.55a.26.26,0,0,0,.28.43l7.26-3A.27.27,0,0,0,85.53,13.55Z"/><path class="cls-1" d="M78.91,21.65l7.23,3a.27.27,0,0,0,.36-.16,14.3,14.3,0,0,0,.59-3,.27.27,0,0,0-.27-.29H79A.26.26,0,0,0,78.91,21.65Z"/><path class="cls-1" d="M77.85,23.87l5.55,5.55a.27.27,0,0,0,.39,0,14.37,14.37,0,0,0,1.73-2.6.27.27,0,0,0-.14-.37l-7.26-3A.26.26,0,0,0,77.85,23.87Z"/><path class="cls-1" d="M76.13,25.61l3,7.13a.27.27,0,0,0,.37.13A14.37,14.37,0,0,0,82,31.19a.27.27,0,0,0,0-.39l-5.47-5.47A.26.26,0,0,0,76.13,25.61Z"/><path class="cls-1" d="M79,19.2h7.81a.27.27,0,0,0,.27-.29,14.31,14.31,0,0,0-.59-3,.27.27,0,0,0-.36-.16l-7.23,3A.26.26,0,0,0,79,19.2Z"/><path class="cls-1" d="M73.76,26.29v7.93a.27.27,0,0,0,.29.27,14.29,14.29,0,0,0,3.13-.63.27.27,0,0,0,.16-.36l-3.08-7.31A.26.26,0,0,0,73.76,26.29Z"/><path class="cls-1" d="M67.43,23.44l-7.26,3a.27.27,0,0,0-.14.37,14.38,14.38,0,0,0,1.73,2.6.27.27,0,0,0,.39,0l5.55-5.55A.26.26,0,0,0,67.43,23.44Z"/><path class="cls-1" d="M69,25.33,63.54,30.8a.27.27,0,0,0,0,.39,14.38,14.38,0,0,0,2.51,1.69.27.27,0,0,0,.37-.13l3-7.13A.26.26,0,0,0,69,25.33Z"/><path class="cls-1" d="M71.31,26.19,68.23,33.5a.27.27,0,0,0,.16.36,14.29,14.29,0,0,0,3.13.63.27.27,0,0,0,.29-.27V26.29A.26.26,0,0,0,71.31,26.19Z"/><rect class="cls-1" x="70.23" width="5.1" height="21.47" rx="2.55" ry="2.55"/><path class="cls-1" d="M3.36,45.07a.83.83,0,1,0,0,1.66h5a2.5,2.5,0,0,1,2.52,2.49v1.66a2.51,2.51,0,0,1-2.52,2.49H.69A.69.69,0,0,1,0,52.7V51.57a.69.69,0,0,1,.69-.68H7.55a.83.83,0,1,0,0-1.66h-5A2.51,2.51,0,0,1,0,46.73V45.07a2.5,2.5,0,0,1,2.52-2.49h7.7a.69.69,0,0,1,.69.68v1.12a.69.69,0,0,1-.69.68Z"/><path class="cls-1" d="M22,44.5v6.76a2.13,2.13,0,0,1-2.14,2.12h-5a2.13,2.13,0,0,1-2.14-2.12V44.5a.3.3,0,0,1,.3-.3h1.54a.3.3,0,0,1,.3.3v6.06a.71.71,0,0,0,.71.71h3.57q.71,0,.71-1.41V44.5a.3.3,0,0,1,.3-.3h1.54A.3.3,0,0,1,22,44.5Z"/><path class="cls-1" d="M23.87,53.08V44.5a.3.3,0,0,1,.3-.3H31a2.13,2.13,0,0,1,2.14,2.12v1.41A2.13,2.13,0,0,1,31,49.85H26v3.23a.3.3,0,0,1-.3.3H24.17A.3.3,0,0,1,23.87,53.08ZM26,47.73h4.28a.71.71,0,1,0,0-1.41H26Z"/><path class="cls-1" d="M34.7,53.08V44.5a.3.3,0,0,1,.3-.3h8.68a.3.3,0,0,1,.3.3V46a.3.3,0,0,1-.3.3H36.84v1.41h4.29a.3.3,0,0,1,.3.3v1.53a.3.3,0,0,1-.3.3H36.84v1.41h6.84a.3.3,0,0,1,.3.3v1.53a.3.3,0,0,1-.3.3H35A.3.3,0,0,1,34.7,53.08Z"/><path class="cls-1" d="M45.83,53.08V44.5a.3.3,0,0,1,.3-.3H53a2.13,2.13,0,0,1,2.14,2.12v1.41A2.13,2.13,0,0,1,53,49.85h-.71L55.11,52v1.41H53.88l-5.2-3.53H48v3.23a.3.3,0,0,1-.3.3H46.13A.3.3,0,0,1,45.83,53.08ZM48,47.73h4.28a.71.71,0,1,0,0-1.41H48Z"/><path class="cls-1" d="M67.76,45.07H60.9a.83.83,0,0,0-.84.83v4.15q0,.83,1.68.83h4.2V49.23H62.57V46.74h5.88v4.6a2.05,2.05,0,0,1-2.06,2H60.06a2.51,2.51,0,0,1-2.52-2.49V45.07a2.5,2.5,0,0,1,2.52-2.49h7.7a.69.69,0,0,1,.69.68v1.12A.69.69,0,0,1,67.76,45.07Z"/><path class="cls-1" d="M70.62,53.08V44.5a.3.3,0,0,1,.3-.3h6.84a2.13,2.13,0,0,1,2.14,2.12v1.41a2.13,2.13,0,0,1-2.14,2.12H77L79.9,52v1.41H78.67l-5.2-3.53h-.71v3.23a.3.3,0,0,1-.3.3H70.92A.3.3,0,0,1,70.62,53.08Zm2.14-5.35H77a.71.71,0,1,0,0-1.41H72.77Z"/><path class="cls-1" d="M82,53.08V44.5a.3.3,0,0,1,.3-.3H91a.3.3,0,0,1,.3.3V46a.3.3,0,0,1-.3.3H84.18v1.41h4.29a.3.3,0,0,1,.3.3v1.53a.3.3,0,0,1-.3.3H84.18v1.41H91a.3.3,0,0,1,.3.3v1.53a.3.3,0,0,1-.3.3H82.34A.3.3,0,0,1,82,53.08Z"/><path class="cls-1" d="M92.88,53.38V44.2h9a.3.3,0,0,1,.3.3V46a.3.3,0,0,1-.3.3H95v1.41H99.3a.3.3,0,0,1,.3.3v1.53a.3.3,0,0,1-.3.3H95v1.41h6.84a.3.3,0,0,1,.3.3v1.53a.3.3,0,0,1-.3.3Z"/><path class="cls-1" d="M103.71,53.08V44.5a.3.3,0,0,1,.3-.3h.62a1.57,1.57,0,0,1,1.12.47l5.1,5.18V44.5a.3.3,0,0,1,.3-.3h1.54a.3.3,0,0,1,.3.3v8.59a.3.3,0,0,1-.3.3h-1.12a1.75,1.75,0,0,1-1.23-.5l-4.49-4.44v4.65a.3.3,0,0,1-.3.3H104A.3.3,0,0,1,103.71,53.08Z"/><path class="cls-1" d="M121.56,53.08V44.5a.3.3,0,0,1,.3-.3h.62a1.57,1.57,0,0,1,1.12.47l5.1,5.18V44.5a.3.3,0,0,1,.3-.3h1.54a.3.3,0,0,1,.3.3v8.59a.3.3,0,0,1-.3.3h-1.12a1.75,1.75,0,0,1-1.23-.5l-4.49-4.44v4.65a.3.3,0,0,1-.3.3h-1.54A.3.3,0,0,1,121.56,53.08Z"/><rect class="cls-1" x="117.33" y="42.58" width="2.46" height="10.8" rx="0.54" ry="0.54"/><path class="cls-1" d="M141.71,45.92A1.72,1.72,0,0,0,140,44.2h-5.4a2.13,2.13,0,0,0-2.14,2.12v4.94a2.13,2.13,0,0,0,2.14,2.12H140a1.67,1.67,0,0,0,1.68-1.66v-.91a.66.66,0,0,0-.66-.66h-.94a.66.66,0,0,0-.66.66v.45H136q-1.43,0-1.43-.71V47a.71.71,0,0,1,.71-.71h4.16v.45a.66.66,0,0,0,.66.66h.94a.66.66,0,0,0,.66-.66Z"/><rect class="cls-1" x="142.75" y="50.46" width="2.81" height="2.92" rx="0.7" ry="0.7"/></g></g></svg>