<svg xmlns="http://www.w3.org/2000/svg" viewBox="0 0 64.62 54.44"><defs><style>.cls-1,.cls-2{fill:#fff;}.cls-2{fill-rule:evenodd;}</style></defs><title>vpcGlobalLight</title><g id="Layer_2" data-name="Layer 2"><g id="Layer_3" data-name="Layer 3"><path class="cls-1" d="M5.83,50.34l-.28,1.24h3.2l0,.14A1.39,1.39,0,0,1,8,52.8,8.31,8.31,0,0,1,5.46,53,6,6,0,0,1,3,52.76c-.28-.16-.35-.57-.2-1.22L3,50.63l.17-.72a1.73,1.73,0,0,1,.8-1.29,7.91,7.91,0,0,1,2.68-.28A9.4,9.4,0,0,1,9,48.5c.09,0,.35.14.28.74l0,.14h2.68l0-.09c.22-1,0-1.64-.66-1.94a13.44,13.44,0,0,0-4.35-.42,18.9,18.9,0,0,0-3.77.26,3.65,3.65,0,0,0-1.91,1.05,7.37,7.37,0,0,0-1.12,3C-.16,52.54,0,53.4.71,53.83s2.06.61,4.31.61A15.74,15.74,0,0,0,9.82,54a2.66,2.66,0,0,0,1.56-2.09l.31-1.56Z"/><polygon class="cls-1" points="15.76 46.99 13.1 46.99 11.45 54.38 20.1 54.38 20.42 52.92 14.44 52.92 15.76 46.99"/><path class="cls-1" d="M32.19,47.6c-.6-.45-2-.67-4.41-.67-2.65,0-4.32.22-5.11.67s-1.39,1.56-1.77,3.29c-.33,1.48-.18,2.45.45,2.9s2.06.65,4.43.65c2.62,0,4.27-.21,5.07-.65s1.38-1.51,1.75-3.17.22-2.55-.4-3m-2.31,3c-.32,1.44-.65,1.92-.88,2.07a6,6,0,0,1-2.71.33c-1.91,0-2.52-.16-2.69-.29s-.31-.46,0-1.73c.37-1.68.7-2.21.91-2.36s.87-.33,2.86-.33,2.51.18,2.63.29.25.5-.08,2"/><path class="cls-1" d="M43.64,52.31a1.35,1.35,0,0,0-.17-1.13,1.82,1.82,0,0,0-1.1-.62A2.07,2.07,0,0,0,44.06,49a1.33,1.33,0,0,0-.53-1.62,7,7,0,0,0-3-.41H34.19l-1.65,7.38H39.3a7.82,7.82,0,0,0,3.08-.45,2.22,2.22,0,0,0,1.25-1.62m-2.8-2.49A6.06,6.06,0,0,1,39,50H36.19l.36-1.61h3.36c.91,0,1.24.18,1.36.33a.42.42,0,0,1,.07.38.93.93,0,0,1-.51.74m-4.92,1.41h3a6.08,6.08,0,0,1,1.92.16c.07,0,.28.13.16.68a1,1,0,0,1-.5.73,4.64,4.64,0,0,1-1.61.18H35.52Z"/><path class="cls-1" d="M48.88,47l-6,7.39h2.87L46.82,53h5.36l.51,1.37h2.77L52.66,47Zm2.88,4.77H47.81l2.71-3.36Z"/><polygon class="cls-1" points="58.64 52.92 59.96 46.99 57.29 46.99 55.65 54.38 64.3 54.38 64.62 52.92 58.64 52.92"/><path class="cls-2" d="M48.42,5.7c.33-.06.22-.3.44-.44s.41,0,.72-.14c.05,0,0-.14.14-.14s.25-.12.44-.14a5.29,5.29,0,0,0,.72,0c.55-.17.89-.71,1.45-.58.16-.29.71-.92,1-.58.67-.12.64.46.87.87,0,.06.2.13.15.29a3.67,3.67,0,0,1,1.16.58s0,.25,0,.29a2.86,2.86,0,0,1,.29.29c.1.1.36.17.43.29s.05.38.15.58.69.91.58,1.59c.51.14.32.68.44,1,0,.05.14,0,.14.14,0,.41.22.52.29.87s0,.52,0,.87.12.31.14.58c0,0-.23.07-.14.14.47.38.07,4.26,0,5.07-.09,1.15,0,2.64-.15,3.91-.05.62-.06,1.27-.14,1.88,0,.39-.21.73-.29,1.16s-.07.87-.14,1.3-.2.75-.29,1.16-.05.78-.14,1.16c0,0-.14,0-.14.14a4,4,0,0,1-.14,1s-.14,0-.15.14a1.74,1.74,0,0,1-.14.72c0,.08-.14.13-.14.14-.12.4-.16.76-.29,1.16a5,5,0,0,1-.15.58c0,.09-.26.22-.29.29a8.53,8.53,0,0,1-.58,1.3,1.57,1.57,0,0,1-.14.14c-.1.2,0,.38-.14.58s-.27.09-.29.14c-.1.21-.06.36-.14.58a1.3,1.3,0,0,1-.29.44l-.15.14a6.82,6.82,0,0,1-.43.87c-.1.12-.35.17-.44.29s0,.41-.14.58-.34.17-.44.29,0,.25,0,.29l-1,.87a3.49,3.49,0,0,1-.29.29c-.47.23-1.13.12-1.59.29a3.58,3.58,0,0,0-.87.58c-.15.11-.29.18-.44.29s-.21.25-.29.29-.48,0-.72.14c-.07,0,0,.14-.15.15s-.18.24-.29.29-.49,0-.72.14a1.88,1.88,0,0,0-.29.15,12.1,12.1,0,0,1-1.74.29c-.45.1-.88.35-1.3.44-.14,0-.3,0-.43,0s-.47.29-.58.14,0,0-.15,0c-.94.11-1.91,0-3.19.14a7.6,7.6,0,0,1-2.46.44c-.29,0-.39-.13-.58-.14a11.14,11.14,0,0,1-1.74,0c-.24-.06-.29-.42-.58-.44s-.41,0-.44-.14c-.75.27-1.45-.07-2.32-.15-.41,0-.72,0-1-.14s-.12.13-.58,0c0,0,0-.14-.15-.14a5.52,5.52,0,0,1-1-.44c-.22-.09-.52-.07-.72-.14s0-.14-.14-.14-.2-.11-.29-.14-.51,0-.72-.15,0-.14-.14-.14a2.39,2.39,0,0,1-1.3-.72c-.63.1-.82-.25-1.45-.14-.12-.38-.4-.37-.72-.58-.08-.05,0-.14-.14-.14a2.49,2.49,0,0,1-.72-.29c-.06,0-.1-.27-.14-.29-.21-.09-.37,0-.58-.14s0-.14-.15-.14a2.51,2.51,0,0,1-.72-.29c-.08,0-.07-.24-.14-.29s-.25,0-.29,0A.75.75,0,0,0,18,37a3,3,0,0,1-.44-.87c-.5.11-.61-.16-.87-.29-.06-.3-.4-.36-.58-.58s0-.28-.14-.43a1.77,1.77,0,0,0-.29-.29c-.47-.38-1-.38-1.45-.72,0,0-.1-.27-.14-.29-.28-.13-.28-.05-.44-.29a5.27,5.27,0,0,0-.43-.58,8.43,8.43,0,0,0-1-1,2.76,2.76,0,0,1-.87-1c-.05-.1-.08-.18-.14-.29s-.26-.09-.29-.14.06-.32,0-.44-.22-.17-.29-.29-.33-.41-.29-.44a.44.44,0,0,0,.14-.44l-.87-.87c.09-.32-.08-.52-.15-.72,0-.05,0-.26,0-.29s-.14,0-.14,0,0-.26,0-.29-.42-.17-.44-.43,0-.29-.14-.44-.25-1.25-.43-2c.12-.35-.33-.43-.44-.58s-.06-.41-.29-.58.18-1-.14-1a1.18,1.18,0,0,0-.29-.87c.24-.37,0-.68,0-1a18.14,18.14,0,0,0-.29-2.32,4.73,4.73,0,0,1-.29-.87c0,.07.14-.11.14-.14s-.06-.53,0-.87S7,14.67,7,14c0,0-.17,0-.15-.14s.14,0,.15-.14a4.29,4.29,0,0,1,0-.58c.1-.42.29-1.45.43-2.17,0,0,.17,0,.14-.15s-.16,0-.14-.14c0,0,.13-.09.14-.14.06-.25.05-.39.15-.72,0,0,0-.26,0-.29s.14,0,.14,0c.09-.32.06-.74.14-1,0-.1.25-.12.29-.29s0-.39.14-.58.37-.31.43-.58.16-.24.29-.44c.29-.41.79-.73.72-1.3.52,0,.69-.57,1-.87s.38-.26.58-.44.28-.3.44-.43.32,0,.44-.14.27-.56.58-.58c.12,0,.32-.22.44-.29s.22-.27.44-.43c.05,0,.25,0,.29,0a2,2,0,0,1,.72-.29c.23-.07.34-.07.58-.14,0,0,0-.14.14-.14a1.23,1.23,0,0,0,.72-.14,8.32,8.32,0,0,1,1.45-.29s0-.14.15-.14A21.41,21.41,0,0,0,20.15.62a5.79,5.79,0,0,0,1-.15c.38-.11,1.59-.15,2.18-.29.29-.07.28,0,.43-.14a15.42,15.42,0,0,1,2.17,0c.06,0,.18.15.15.14.31,0,.38-.15.58-.14s.16.13.29.14C26.91.18,27,0,27.11,0s0,.14,0,.14c.3,0,.38-.14.58-.14s.14.16.29.14A2.93,2.93,0,0,1,28.85,0c.9,0,1.8.24,2.75.29a19,19,0,0,1,2.32.14s.07.24.14.15.18-.06.44,0a4.82,4.82,0,0,0,.87.14,1.78,1.78,0,0,1,.29,0c.14,0,.36.08.58.14a5.67,5.67,0,0,0,.58.29c.32.1.65.16,1,.29a7.21,7.21,0,0,0,.72.29c.62.16,1.56.46,2.32.58a9.86,9.86,0,0,1,.58,1.3c.74.17,1.17,1.75.87,3.19-.11.52-.38.57-.58,1-.06.13,0,.29-.14.29a2.53,2.53,0,0,1-.29,1.16,3.76,3.76,0,0,1-.72.87c-.11.1-.3,0-.44.14s-.11.28-.14.29-.4,0-.58,0a1.77,1.77,0,0,1-1,.14s0-.14-.14-.14a.57.57,0,0,1-.14,0,.45.45,0,0,1-.14-.14c-.14,0-.38.2-.44.14s-.11-.26-.43-.29c-.51-.05-1.13,0-1.74,0-.12,0-.14.15-.29.14,0,0-.06-.14-.15-.14a21.08,21.08,0,0,0-3.19,0s-.27,0-.29,0c-.25.3-.36-.14-1,0-.12,0-.14.13-.29.14s-.18-.16-.29-.14,0,.14-.14.14-.23-.18-.44-.14c0,0,0,.14-.14.14a2.4,2.4,0,0,1-.72,0c-.13-.13-.07,0-.29,0-.05,0-1-.14-1.16,0s-1.07.08-1.6.14-.89.26-1.3.29a20.1,20.1,0,0,0-3,.14c-.11,0-.11.14-.14.14-.31.09-.72.06-1,.14-.1,0-.13.25-.29.29a5,5,0,0,0-1.3.29,2.93,2.93,0,0,0-.87.87c0,.05,0,.25,0,.29a1.13,1.13,0,0,0-.44.58c0,.05,0,.26,0,.29s-.08.29-.14.58a15.8,15.8,0,0,0,0,4.2s0,.27,0,.29c.42.34.21,1.77.44,2.32.07.18.22.24.29.43.21.61,0,1.33.72,1.45a1.36,1.36,0,0,0,.44,1s.24,0,.29,0,0,.24,0,.29a5.86,5.86,0,0,1,.58.58c.1.13.05.31.14.44s.2.16.29.29a4.58,4.58,0,0,0,1.45,1.45c.11.08.29.28.43.29.33,0,.52.6.87.87.05,0,.25,0,.29,0s.11.43.29.44a4.06,4.06,0,0,1,.43.14c.11.08.17.37.29.44s.42.06.58.14.25.21.44.29.4.07.58.14l.72.29.72.29a4.46,4.46,0,0,1,.58.14c.13.07.1.24.29.29s.87.08,1.3.14c.26,0,.46.09.72.14s.28,0,.44.15,1.16-.25,1.59-.15l.44.15c.16.19.49.08,1,.14.28,0,1.77.46,2,.14,0,0,0-.14,0-.14s.16.14.14.14c.39,0,.45-.27.87-.29a7.92,7.92,0,0,0,.87-.15c.26,0,.41-.13.58-.14s.41.17.58.14c0,0,0-.14.14-.14a.57.57,0,0,0,.14,0c.58-.23,1.71-.31,2.46-.58,0,0,0-.12.14-.14s.2,0,.29,0a12.23,12.23,0,0,0,2-.72c.52,0,.11-.95.44-1.16a.93.93,0,0,0,.72-.14c.15-.1.16-.33.29-.43a6.2,6.2,0,0,0,.87-.58c.25-.29.21-.93.72-1-.08-.57.36-1,.58-1.45.1-.23.18-.47.29-.72,0,0,.12-.56.14-.58a.62.62,0,0,0,.14-.58s0-.26,0-.29,0-.34,0-.87c-.06-1.19-.27-2.38-.29-3.91a3.91,3.91,0,0,0,0-1.16c-.09-.29-.06-.25,0-.72a4.57,4.57,0,0,0,0-.72c0-.24-.18-.11,0-.29s-.2-.47-.29-.44c-.14-.22.68-1,.29-1.3-.19-.15,0-.06,0-.29,0,0-.14,0-.14-.14a5.16,5.16,0,0,1,0-1.45c.08-.33.05-.07,0-.58s.05-.4.14-.72c0,0,0-.26,0-.29.3-.25.34-1.14.72-1.59-.28-.65.06-1.45,0-2.61"/><polygon class="cls-1" points="27.84 15.77 24.27 24.82 21.55 24.82 17.98 15.77 20.68 15.77 22.94 21.9 25.2 15.77 27.84 15.77"/><path class="cls-1" d="M36.79,18.63a3.2,3.2,0,0,1-.23,1.2,2.48,2.48,0,0,1-.66,1,4.27,4.27,0,0,1-.58.44,3.73,3.73,0,0,1-.7.34,5,5,0,0,1-.83.22,5.71,5.71,0,0,1-1,.08H31.4v3H28.8v-9h4a7.29,7.29,0,0,1,1.55.14,4,4,0,0,1,1.18.45,2.4,2.4,0,0,1,.91.91,2.7,2.7,0,0,1,.32,1.35m-2.68.05a1.09,1.09,0,0,0-.71-1,2.41,2.41,0,0,0-.71-.16l-.92,0H31.4v2.71h.88a4.37,4.37,0,0,0,.57,0A2.14,2.14,0,0,0,33.3,20a1.23,1.23,0,0,0,.72-.67,1.87,1.87,0,0,0,.09-.66"/><path class="cls-1" d="M42.65,25a5.35,5.35,0,0,1-3.71-1.23,4.41,4.41,0,0,1-1.37-3.46,4.45,4.45,0,0,1,1.38-3.43,5.23,5.23,0,0,1,3.71-1.28,9.3,9.3,0,0,1,1.11.06,8.67,8.67,0,0,1,.95.17,7.82,7.82,0,0,1,.77.25l.68.27v2.16h-.26l-.47-.35a6.42,6.42,0,0,0-.65-.4,4.62,4.62,0,0,0-.8-.33,3,3,0,0,0-.91-.14,3.31,3.31,0,0,0-1,.16,2.55,2.55,0,0,0-1.53,1.47,3.61,3.61,0,0,0-.25,1.39,3.45,3.45,0,0,0,.26,1.42,2.48,2.48,0,0,0,1.58,1.42,3.4,3.4,0,0,0,1,.15,3.21,3.21,0,0,0,1-.15,4.2,4.2,0,0,0,.79-.33,5.39,5.39,0,0,0,.61-.38l.46-.35h.24v2.13l-.66.26a6.4,6.4,0,0,1-.78.25q-.49.13-.91.2a8.11,8.11,0,0,1-1.17.07"/><path class="cls-1" d="M58.05,40.12a2.45,2.45,0,1,1-2.44-2.38,2.39,2.39,0,0,1,2.44,2.38m-4.29,0A1.85,1.85,0,0,0,55.63,42a1.82,1.82,0,0,0,1.82-1.89,1.84,1.84,0,1,0-3.68,0m1.47,1.25h-.55V39a4.81,4.81,0,0,1,.91-.07,1.49,1.49,0,0,1,.83.17.66.66,0,0,1,.23.52.61.61,0,0,1-.49.55v0a.7.7,0,0,1,.44.58,1.81,1.81,0,0,0,.18.6h-.6a2.07,2.07,0,0,1-.19-.58c0-.26-.19-.38-.49-.38h-.26Zm0-1.35h.26c.3,0,.55-.1.55-.35s-.16-.36-.51-.36a1.35,1.35,0,0,0-.3,0Z"/></g></g></svg>