<svg xmlns="http://www.w3.org/2000/svg" viewBox="0 0 115.01 46.42"><defs><style>.cls-1{fill:#112252;}</style></defs><title>AmericanStandardDark</title><g id="Layer_2" data-name="Layer 2"><g id="Layer_3" data-name="Layer 3"><path class="cls-1" d="M23,11.21a88.7,88.7,0,0,0,10.79-8.1c3.54-3.26,4-3.31,4.53-3s.52.43,1,.56c.82.21,1.71,1,1.3,1.92S35.9,10,35.38,11.13c0,0,2.66.68,2.69,1.54s-.41.48-.67.36a9.48,9.48,0,0,0-2.72-.31s-3.42,5.48-3.79,8.81a48.77,48.77,0,0,1,6.54.36c1.46.36,2.1.25,2.8,1.29s.81,1.74.31,2.3a7.07,7.07,0,0,1-5.94,1.62c-3.7-.45-5.13-2.13-5.74-2.91a14.82,14.82,0,0,0-3.14,1.09,8,8,0,0,0-2.89,2.13s.39.5,3.31,1.18,8.47,2.15,11.29,6a3.22,3.22,0,0,1-.31,4.51A33.28,33.28,0,0,1,23.33,45.6c-3.06.65-7.34,1.18-9.3.5s-3.5-3.05-2.94-4,2.19-3.11,2.75-2.44a.44.44,0,0,1-.08.42c-.17.25-1.4,2.52-1.09,3.45s2.21.7,3.7.67a37.47,37.47,0,0,0,12.41-3.14c4.6-2.21,7.47-4.74,7.51-5.38,0-.48-.22-1.74-4.68-3.64a29.71,29.71,0,0,0-4.09-1.26c-2.49-.68-4.36-1.14-5.38-2.21a2.84,2.84,0,0,1-.48-3.25,12.23,12.23,0,0,1,6.56-3.5s.11-2.52,3.76-9.42c0,0-3.56,0-4.88.06,0,0-1.43.17-1.65.17,0,0-6.47,4.54-10.14,6.17C12.9,20.15,7,22.64,3.38,22.06.38,21.58.13,20,0,19.59a1,1,0,0,1,.34-1.07,45.09,45.09,0,0,1,9.14-4.6A68.16,68.16,0,0,1,23,11.21m5-.34c1.6,0,4.46.06,4.71,0s.28-.22.42-.45S36.8,4.15,37,3.84s0-.41-.17-.22c-5.3,4.71-9.08,7.26-8.86,7.26M20,13.2A45.51,45.51,0,0,0,7.58,16.48c-4.29,1.77-5.77,3.25-5.77,3.25s3,.84,8.15-1.43S20,13.2,20,13.2m13.7,12.58c2.33.06,4.82-.84,5.16-1.51s-8.17-.5-8.13-.36c.31,1,.64,1.82,3,1.88m6.89-15.36c0-.36-.06-.55,0-.67s.39-.18.65-.1c.51.14,1.62.67,1.67,1.28,0,.32.16.52-.58,1.75,0,0-.18.27.26-.08S44.55,11.22,45,11c.13-.07.63-.61,1.21-.15.39.31,1.29.86,1.06,1.4-.37.9-1,2.08-1.2,2.39,0,0,1.84-1.63,2.71-2.56a4.21,4.21,0,0,1,1.14-1,1.23,1.23,0,0,1,1,.07c.42.2,1.28.95,1.05,1.56-.14.37-1.6,3-1.93,3.84a5.8,5.8,0,0,0-.44,1.84c0,.21.06.2.29.09a28.14,28.14,0,0,0,3.24-1.8,8.8,8.8,0,0,1,3.24-5.23,4,4,0,0,1,2.71-1,2.52,2.52,0,0,1,1.69.58,2.13,2.13,0,0,1-.24,2.9,19.45,19.45,0,0,1-4.83,3.33s-.57,1.37.09,1.65a10.79,10.79,0,0,0,1.51-1,43.08,43.08,0,0,0,5-4.06c1.57-1.64,2.51-2.7,2.75-2.9a1.53,1.53,0,0,1,0-1.07c.2-.56.59-1,.88-1a1.45,1.45,0,0,1,1.47.57c.57.69.49,1,.42,1.2s-.17.59.13.74,1.21.4,1.4,1.2A1.06,1.06,0,0,1,69,13.65a32.3,32.3,0,0,0-2.51,4.29c-.2.61.43,0,.64-.07a30.64,30.64,0,0,0,4-3A16.33,16.33,0,0,0,72.44,13c.46-.69,1.06-1.62,1.28-1.88a1,1,0,0,1,1-.2,4.75,4.75,0,0,1,.78.41,1,1,0,0,1,.39,1c-.22.51-2.48,3.32-3.11,5.83-.06.22,1.35-.62,1.82-.87.64-.34,2.59-1.65,2.87-1.86s1.5-2.58,2.62-3.53,2.56-2.26,3-2.13a2.92,2.92,0,0,1,1.43.91.56.56,0,0,1,.13.45c0,.07.24.14.38.21a.74.74,0,0,1,.2,1C84.84,13,84,14,83.63,14.07s-.63-.32-.52-.73.2-.73.25-.88,0-.28-.18-.11-3.53,3.15-3.93,6.23c0,0-.09.41.09.36a3.67,3.67,0,0,0,.75-.26A39.65,39.65,0,0,0,85.61,15s3.05-3.8,5.83-4.74a.88.88,0,0,1,1,.08,2.48,2.48,0,0,1,1.23,1.88c0,.41.22,0,.34-.1s.42-.43.73-.22a3.12,3.12,0,0,1,.62.56c.15.17.46.46.28.81-.46.91-2.11,3.31-2.09,3.64s.48-.25.8-.49S99,12.33,99.8,11.59a18.74,18.74,0,0,1,1.65-1.44.86.86,0,0,1,.87.07c.34.21,1.11.58,1,1.13-.51,1.88-1.12,2.65-1,2.62a22.29,22.29,0,0,0,2-1.64c.67-.5,1.4-1.16,1.64-1.29a.66.66,0,0,1,.71,0,5.26,5.26,0,0,0,.9.55,1,1,0,0,1,.59,1.16c-.28.91-2.23,4.46-2.28,4.82s0,.29.49.09,5.47-2.85,5.81-3,.2.78,0,1.05a17.45,17.45,0,0,1-2,1.48A25.54,25.54,0,0,1,106,19.57a1.92,1.92,0,0,1-1.44-.27,1.72,1.72,0,0,1-1-1.55,11.66,11.66,0,0,1,1.13-3.56c.35-.6.21-.67,0-.49a27.82,27.82,0,0,0-3.07,3c-.62.87-1.65,2.51-1.81,2.77A1.14,1.14,0,0,1,98.5,20a2,2,0,0,1-1.16-.78c-.11-.15,0-.3.06-.61a36.65,36.65,0,0,1,2.23-4.53c.32-.52.19-.5.06-.43s-5.18,4.62-6,5.1a1.29,1.29,0,0,1-1.13.29c-.47-.18-1.1-.67-1.15-.94a4.64,4.64,0,0,1,0-1.4s-2.7,2.35-3.36,2.74a1.87,1.87,0,0,1-1.79.21A2.85,2.85,0,0,1,85.14,18a3.63,3.63,0,0,1,0-.78,52.39,52.39,0,0,1-4.74,2.92,2.13,2.13,0,0,1-2-.16c-.46-.33-1.58-1.24-1.31-2.41,0,0,0-.11-.2,0s-3,2.21-3.9,2.27a1.73,1.73,0,0,1-1.59-.73,1.72,1.72,0,0,1-.6-1.1,2.6,2.6,0,0,1,0-.88A21.73,21.73,0,0,1,67,19.56c-1,.31-1.06.24-1.48,0a2.74,2.74,0,0,1-1.21-1.59c-.06-.62,0-1.61,1.19-3.56.45-.74,1.19-2,1.25-2.15s.14-.25-.11-.5-.27-.13-.36,0a40.42,40.42,0,0,1-4.94,5.19c-.41.36-3.65,3.45-5.61,3.32-1.39-.09-2.27-1.8-2.3-1.92a22.94,22.94,0,0,1-3.2,1.46,2,2,0,0,1-2.07-.85,2.87,2.87,0,0,1-.64-2.23,14.36,14.36,0,0,1,.61-2A47.34,47.34,0,0,0,44.57,18c-.63.8-.91,1.35-1,1.46a.77.77,0,0,1-.66.12,4,4,0,0,1-.91-.71c-.1-.14-.31-.31-.1-1a24.3,24.3,0,0,1,2.46-4.7c.32-.62,0-.3-.16-.18s-2.42,2-3.19,2.83a24.78,24.78,0,0,0-3.3,4c-.33.56-.54.38-.84.32a2.52,2.52,0,0,1-.84-.46c-.25-.18-.59-.43-.34-.91s1.66-2.68,2-3.27,1.84-2.91,2.18-3.42a6.73,6.73,0,0,0,.79-1.62m35.67-.48A.72.72,0,0,0,77,9.69a3.37,3.37,0,0,0,.56-1.21c0-.36-.15-.53-.13-.65A.77.77,0,0,0,77,7.27c-.18,0-.29.21-.7.33a6.25,6.25,0,0,0-1.2,1c-.16.2-.35.27-.26.41a2.3,2.3,0,0,0,.73.75,1.72,1.72,0,0,0,.71.21M56,15c-.09.16-.21.36.19.12a28.35,28.35,0,0,0,3.18-2.45c.24-.24.33-.47.3-.54s-.18-.08-.26-.06c-.27.07-1.9.17-3.4,2.92m36.7-1.76c.11-.35.14-1-.09-1s-.77.22-1.36.53a9.68,9.68,0,0,0-4,4.87c-.37.87,0,.54.26.34a39.39,39.39,0,0,0,3.71-3.25c.39-.45,1.43-1.33,1.47-1.45M36.95,27.92s.94.28,9.54-.94c0,0,1.4-1.68,1.91-2.43s1-1.5,1.35-1.85.41-.73,1.14-.41,1.26,1.06,1,1.61a18.58,18.58,0,0,1-2,2.88,83.43,83.43,0,0,1,8.59-.32c2.17.21,3.44.56,3.79,1.33s.55,1,.19,1c-.13,0-.36-.21-.56-.3a7.61,7.61,0,0,0-2.52-.34c-3.46.19-10.28.58-11.47.86,0,0-5.74,7.09-6.8,9.75-.22.56.36.14.78-.09s4.31-2.93,4.81-3.29a16.8,16.8,0,0,0,1.46-1.23A17.81,17.81,0,0,1,52,30.8c1.09-.68,1.06-.6,1.67-.36a2.39,2.39,0,0,1,1.46,1.24c.2.51.3.41.45.36s.41-.14.77.36a1.87,1.87,0,0,1,.45,1.51c-.14.43-2.66,3.57-2.27,3.92.15.14,1.11-.71,1.65-1.05a17.25,17.25,0,0,0,3.66-3.64c.86-1.16,1-1.72.88-1.84s-.19-.25.31-.22,1.68.28,1.85.93a1.52,1.52,0,0,1-.24,1.23s2.27-1.57,3.1-2,1.05-.45,1.42-.27,1.18.68,1.15,1.11a26,26,0,0,1-1.63,3c-.7,1.28-1.31,2.58-1.35,2.72s-.24.53.4.2a37.19,37.19,0,0,0,3.38-2.4s2.58-4.15,4.81-5c1.87-.69,2.89.24,3,1.14,0,0,3.31-5.29,3.9-6.22s1.29-1.92,1.35-2.14.25-.29.48-.2a3.48,3.48,0,0,1,.9.64,1.22,1.22,0,0,1,.36,1.6c-1.24,1.82-3.94,6-4.83,7.43a23.57,23.57,0,0,0-2.21,4.88c0,.26,0,.38.2.27A25.9,25.9,0,0,0,80.24,36s2.44-3.64,5.42-4.93a1.39,1.39,0,0,1,1.53.41,5.12,5.12,0,0,1,1,1c.06.1.17-.45.62-.32a1.44,1.44,0,0,1,.86.58c.28.29.72.55.29,1.19a26.29,26.29,0,0,0-2,3.77c-.07.32.17,0,.42-.2s4.83-5.23,5.32-5.87.39-.38.29-.56-.31-.67.28-1.53c.36-.53,1.3-.38,1.65-.17s1.16.8.7,1.54-.2,1.05,0,1.22a9.65,9.65,0,0,1,1.53,1,1,1,0,0,1-.06,1.19,50.93,50.93,0,0,0-2.62,4.44c-.22.63.13.29.52.07s3.63-2.61,4-2.89a14.31,14.31,0,0,1,4.78-4.74,2.11,2.11,0,0,1,2.55,0,2.36,2.36,0,0,1,.73,1s4.06-6.63,4.41-7.14.47-.94.68-.78a3.1,3.1,0,0,0,.62.39,1.34,1.34,0,0,1,.63,1.78,88.22,88.22,0,0,0-6.26,10.87c-.33.7-.36.8-.15.74.62-.15,5.51-2.64,6.35-3.07.64-.33.65-.37.68-.21.14.78,0,.86-.3,1.23s-4.41,2.88-5.17,3.39a3,3,0,0,1-2.41.53,2.63,2.63,0,0,1-1.49-1.76,2.41,2.41,0,0,1,.1-1c0-.09,0-.18-.12,0-.4.48-2.13,2.26-2.33,2.46a1.82,1.82,0,0,1-2.14.58,2.39,2.39,0,0,1-1.62-2s-.17.11-.43.3-.87.68-1.45,1-1,.59-1.48.83a1.51,1.51,0,0,1-1.81-.08c-.36-.35-1.1-1-1.05-1.76a5.52,5.52,0,0,1,.7-2.3c.45-.94,1-2.12,1.32-2.62s.39-.63.21-.91-.29-.38-.45-.15c0,0-.89,1-1.91,2.15s-2.78,3-3,3.26a22.75,22.75,0,0,1-1.76,1.66.82.82,0,0,1-.67.22,2.33,2.33,0,0,1-1.63-1.31A3.11,3.11,0,0,1,86,37.39s-2.83,2.3-3.53,2.67a1.38,1.38,0,0,1-1.68,0,2.88,2.88,0,0,1-1-1.89,16.9,16.9,0,0,1-2,1.38,2,2,0,0,1-1.51-.25,3,3,0,0,1-1.32-1.19,2.18,2.18,0,0,1,0-1.08,11.71,11.71,0,0,1-3,2.76,1.92,1.92,0,0,1-2.17.29c-1-.53-1.24-.9-1.3-1.34a1.27,1.27,0,0,1,.1-.78,22,22,0,0,1-1.89,1.28,1.9,1.9,0,0,1-1.7.09,2.72,2.72,0,0,1-1.53-1.47,3.77,3.77,0,0,1,.43-2.65c.49-1,.82-1.65,1-2s-.06-.18-.16-.09-2.49,1.88-3,2.4a22,22,0,0,0-3.25,4.18c-.33.64-.43.77-.8.64s-1.2-.79-1.23-1.21.09-.56.39-1.05l-1,.64c-.39.26-.92.76-1.62.49A2.56,2.56,0,0,1,52.93,38,2.82,2.82,0,0,1,52.81,37c.06-.22,0-.22-.14-.06S50.57,39,50.3,39.24s-1.16,1.34-1.95,1.07A3.28,3.28,0,0,1,46.72,39a2.81,2.81,0,0,1-.13-1.47s-1.85,1.2-2.29,1.49-3.16,2-4,1.78A2.5,2.5,0,0,1,38.86,39a4.7,4.7,0,0,1,.73-2.44,79.84,79.84,0,0,1,4.85-7.11s.12-.21-.23-.15-4.32.5-4.9.54-1.52.17-1.91-.54-.56-1.37-.44-1.41m17.74,4.94c.11-.35-.44-.44-.67-.5s-.63.15-1.23.54a11,11,0,0,0-3.87,4.82c-.34.88,0,.53.28.34a33.83,33.83,0,0,0,3.59-3.31c.39-.45,1.87-1.77,1.91-1.89m32.91.62c0-.36-.19-.44-.41-.47a4.16,4.16,0,0,0-1.74.8,10.14,10.14,0,0,0-3.59,4.32c-.33.88.06.62.34.43a27.56,27.56,0,0,0,3.66-3,16.22,16.22,0,0,0,1.73-2m-11.21-.81c.08-.11.08-.2,0-.28a3.2,3.2,0,0,0-1.65.6,18.68,18.68,0,0,0-3.94,4.6c-.76,1.46-.35,1.08.25.73a26.65,26.65,0,0,0,4.19-3.87c.48-.76,1.16-1.78,1.16-1.78m30.6.77c.17-.24.14-.67,0-.73s-1.18.36-1.92.83a9.56,9.56,0,0,0-3.31,3.71c-.65,1.71-.33,1.36.27,1A53.09,53.09,0,0,0,107,33.44"/></g></g></svg>