<svg xmlns="http://www.w3.org/2000/svg" viewBox="0 0 112.89 43.02"><defs><style>.cls-1,.cls-2{fill:#fff;}.cls-1{fill-rule:evenodd;}</style></defs><title>BlackSwanLight</title><g id="Layer_2" data-name="Layer 2"><g id="Layer_3" data-name="Layer 3"><path class="cls-1" d="M0,30.88V43H112.89V30.18l-.34,1c-.34,1.73,0,1.39-1,3.12-3.09,5.9-9.61,7.63-14.41,5.2a11.45,11.45,0,0,1-6.52-7.29c-.34-1,0-1-.69-1.73,0,5.55-5.15,10.06-11,10.06-6.18,0-11-4.86-11-10.06-.69,1-.34.69-.69,2.08a16.05,16.05,0,0,1-3.09,5.2A11.64,11.64,0,0,1,46,34a17.75,17.75,0,0,1-.69-4.51H45c0,12.14-16.13,15.61-21.27,4.86-.69-1.73-.69-2.43-1-3.12,0-.69,0-.69-.34-.69,0,4.86-4.8,10.06-11,10.06a10.21,10.21,0,0,1-7.55-3.12,9.32,9.32,0,0,1-2.4-2.78,3.75,3.75,0,0,1-.69-2.08,1.28,1.28,0,0,1-.34-1c-.34-1,0-.35-.34-.69Zm112.89-.69Z"/><path class="cls-1" d="M47.7,17.69c1.37-.69,1-1.39,3.43-1.39.34,4.16-3.43,6.24-4.46,10.41a9.87,9.87,0,0,0,3.09,10.41c6.52,5.2,16.81,1.39,16.81-9,0-3.47-1-3.82,1.37-6.24l-2.06.69c.34-1.73,1-1.73,1.37-3.12-1,.35-1.37.69-2.06.35-.34-.69.34-1.39.69-2.78-1,.35-2.75,1.39-3.77,1.73-1.37.69-2.06,1.39-3.43,2.08l-.34-1.39c-4.46,1.39-5.15,6.94-8.24,7.29-.69-2.43,1.37-4.86,2.06-6.94,1.37-2.43,1.72-5.55-1.37-6.59-2.75.69-2.06,2.08-3.09,4.51Z"/><path class="cls-1" d="M16.13,18c-1.72,0-2.06-1.73,0-2.78.69.35,1.37.35,1.37,1.39A1.48,1.48,0,0,1,16.13,18Zm-1-5.2v1.73c-1.72.69-2.06.35-2.06-1.73ZM7.55,15.26c2.4,1,5.49,5.9,5.83,8.67,1.37-.69,2.4-1.73,3.77-2.43V20.12c3.09-.69,4.46,0,5.49-2.78,1-3.12-1-4.51-3.77-4.51,0-1,2.06-6.94-6.18-.69-1,.69-1.72.69-2.75,1.39l-2.4,1.73Z"/><path class="cls-1" d="M62.45,8l-.34,2.78c1.72,0,10.29,3.47,10.29-2.78,0-3.12-5.15-3.47-5.15-4.86,0-1.73,1.72-1,2.75-.69.69.35,1.72,1.73,2.06,1.73l.34-1.39C72.74,1,72.06,1,70.69,1a11.3,11.3,0,0,0-4.8-.35c-2.4.35-4.12,2.78-2.75,4.86,1,2.08,4.8,2.08,4.8,3.82,0,1.39-2.4,1.73-4.12-.35-1-.69-.34-.69-1.37-1Z"/><path class="cls-1" d="M31.23,11.1c-.69-.69-.34,0-.34-1.39,1,0,1.72-.35,1.37,1,0,.69-.69.69-1,.35ZM28.14,8c1.37-.35,1.72-.69,3.09,0-1,1-3.43.35-3.43,3.12a3.26,3.26,0,0,0,1.72,3.12c1.72.69,2.06-.35,3.43-1,1.72,6.24,7.21,4.51,7.55,0-.69.35-1.72,1.39-2.75,1C34.66,11.45,36,8.67,34,6.24c-2.75,0-4.8,0-5.83,1.73Z"/><path class="cls-1" d="M91.27,12.84c0,1.73-.34,1.73-1.72,1,.34-1.39.69-1,1.72-1Zm.34-1.39c-.69,0-5.15-2.43-5.15,2.43,0,2.78,1.37,2.43,3.77,2.43-2.4,7.63,3.77,6.94,5.15,5.9,1-1,.34-.35.69-1.39-5.83,1.39-1.37-6.59-1.37-9.37a6.46,6.46,0,0,0-5.83-2.08c1.72,1,2.4,0,2.75,2.08Z"/><path class="cls-1" d="M44.61,10.75h4.46a10.23,10.23,0,0,1-.69-3.12c1.72,1.73,1,3.12,4.46,3.12,1.37-1.73,1-1.39.69-3.82-2.06-.35-2.4-.35-2.75-2.08,1.72-1.39,2.06-1.39,2.4-2.08l-3.09.35a2.94,2.94,0,0,1-1.72,3.12L48,0H44.26c.34,2.78,2.06,6.59.34,10.75Z"/><path class="cls-1" d="M94.7,18.39a9,9,0,0,0,3.09,1.73c1.37-2.78,1.72-4.86,3.77-4.86.34,2.08-1.72,4.16-2.4,5.55l3.77,2.08c.34-4.16,4.46-6.94-1.37-8.67-1-.35-1.37-1-4.12-2.08a8.84,8.84,0,0,1-2.75,6.24Z"/><path class="cls-1" d="M36.37,7.63c0,5.2,7.55,6.24,7.89-.35-1.37.69.34-.35-1,1-1.72,2.08-5.49-1.39-2.75-3.82l.69,2.08c3.43,1,2.75-2.43-.34-2.78a3.68,3.68,0,0,0-4.46,3.82Z"/><path class="cls-1" d="M20.59,6.94C21.27,8.33,22,8.33,23,11.1a13.19,13.19,0,0,1,1.37,5.55,14.76,14.76,0,0,0,4.12-1.73c-2.4-2.43-2.75-6.24-4.46-9l-3.43,1Z"/><path class="cls-1" d="M78.92,12.49l2.4-.35V11.8H77.89v-.35H76.52c0-2.43,1-3.82,1-6.24-1.37,0-1.72-.69-3.43-.69.34,2.78-.69,3.47-.34,6.59,2.06,3.12,3.43.69,5.15,1.39Z"/><path class="cls-1" d="M77.89,11.45v.35h3.43c0-3.12,1-3.12,1.37-5.2l-3.77-1c.34,3.47-.34,3.47-1,5.9Z"/><path class="cls-1" d="M81.32,12.14l-2.4.35c.34,0,0,1.39,2.4,1.73a3.15,3.15,0,0,0,3.09-1c4.46-3.82-1.37-9-1-3.82l1.72,1c0,3.12-1.72,3.47-3.77,1.73Z"/><path class="cls-2" d="M106.79,17.3a1.24,1.24,0,1,1,.87-.36A1.19,1.19,0,0,1,106.79,17.3Zm0-2.3a1,1,0,0,0-.75.31,1,1,0,0,0-.32.75,1.06,1.06,0,0,0,1.06,1.06,1.07,1.07,0,0,0,1.07-1.07A1.06,1.06,0,0,0,106.79,15Zm.46.56a1,1,0,0,1,.23.3.34.34,0,0,1-.09.39.3.3,0,0,1-.28.1.52.52,0,0,1-.18-.09.33.33,0,0,1,.07.26.37.37,0,0,1-.1.2l-.07.07-.07.07,0,.06v0l-.16-.16h0l0,0,.08-.08a.33.33,0,0,0,.13-.31.57.57,0,0,0-.16-.22l-.13-.13-.38.38-.17-.17,1-1Zm0,.33a.62.62,0,0,0-.17-.24l-.14-.14-.35.35.15.15a.65.65,0,0,0,.18.14.24.24,0,0,0,.32-.25Z"/></g></g></svg>