<svg xmlns="http://www.w3.org/2000/svg" viewBox="0 0 136.59 34.02"><defs><style>.cls-1{fill:#112252;}</style></defs><title>GossDark</title><g id="Layer_2" data-name="Layer 2"><g id="Layer_3" data-name="Layer 3"><rect class="cls-1" x="82.39" y="0.82" width="53.36" height="3.18"/><rect class="cls-1" x="82.39" y="7.11" width="53.36" height="3.18"/><rect class="cls-1" x="82.39" y="13.4" width="53.36" height="3.18"/><rect class="cls-1" x="82.39" y="19.7" width="53.36" height="3.18"/><path class="cls-1" d="M13.42,8.54l5.64-.91A9.33,9.33,0,0,0,9.5,0C2.09,0,0,7.12,0,11.44c0,5.24,2.66,11.61,9.45,11.61a7.06,7.06,0,0,0,6-2.73l1.72,2.39H19V11.44H10v4h3.39a3.48,3.48,0,0,1-3.5,3.13c-3.18,0-3.65-3.76-3.65-7.29s.57-6.83,3.71-6.83,3.5,4.1,3.5,4.1"/><path class="cls-1" d="M30.44.11c-7.57,0-10,6.15-10,11.56s2.66,11.44,9.66,11.44,10-5.64,10-11.67C40,5.12,36.65.11,30.44.11m-.21,18.62c-2.24,0-3.71-1.82-3.71-7.23s1.51-7,3.81-7,3.5,1.88,3.5,7S32.47,18.73,30.23,18.73Z"/><path class="cls-1" d="M53.36,6.78l3.39-3.13S54.77.29,49.13.29s-8.25,3.53-8.25,7.4,2.82,5.41,6.37,6.38S52,15.6,52,16.74s-1.46,1.88-3.34,1.88a6.31,6.31,0,0,1-5.06-2.79l-3.55,3s2.35,4.38,8.72,4.38,9.08-3.76,9.08-7.29-1.25-6-6.42-7.12-4.86-2-4.86-2.62.52-1.48,2.61-1.48a5,5,0,0,1,4.18,2"/><path class="cls-1" d="M71.52,6.78l3.39-3.13S72.93.29,67.3.29,59,3.81,59,7.69s2.82,5.41,6.37,6.38,4.75,1.54,4.75,2.68-1.46,1.88-3.34,1.88a6.31,6.31,0,0,1-5.06-2.79l-3.55,3s2.35,4.38,8.72,4.38S76,19.47,76,15.94s-1.25-6-6.42-7.12-4.86-2-4.86-2.62.52-1.48,2.61-1.48a5,5,0,0,1,4.18,2"/><path class="cls-1" d="M76,2.67a2.5,2.5,0,1,1,2.51,2.51A2.5,2.5,0,0,1,76,2.67m4.57,0a2.06,2.06,0,1,0-2.06,2.07A2.06,2.06,0,0,0,80.53,2.67Zm-2.59.17V4.11h-.46V1.17h1c.54,0,1.1.15,1.1.81a.68.68,0,0,1-.6.69h0c.41.08.45.26.5.58a4.15,4.15,0,0,0,.17.85H79c0-.17-.08-.35-.1-.53A1.11,1.11,0,0,0,78.76,3c-.11-.12-.26-.11-.43-.12Zm.49-.46c.43,0,.53-.19.53-.42s-.1-.33-.47-.33h-.55v.75Z"/><path class="cls-1" d="M4.43,28.1H6.16v5.76H5V30q0-.17,0-.47c0-.2,0-.36,0-.47L4,33.86H2.79L1.7,29c0,.11,0,.26,0,.47s0,.36,0,.47v3.89H.59V28.1H2.34l1,4.53Z"/><path class="cls-1" d="M8.76,28.1h1.36l2,5.76h-1.3l-.38-1.18H8.35L8,33.86H6.7Zm-.08,3.58h1.47l-.73-2.26Z"/><path class="cls-1" d="M12.7,28.1H14l2.28,4v-4h1.12v5.76h-1.2l-2.34-4.08v4.08H12.7Z"/><path class="cls-1" d="M18.34,28.1h1.22v3.53a2,2,0,0,0,.14.87.93.93,0,0,0,1,.48.92.92,0,0,0,.94-.48,2,2,0,0,0,.14-.87V28.1H23v3.54a3,3,0,0,1-.28,1.43,2.12,2.12,0,0,1-2,.94,2.13,2.13,0,0,1-2-.94,3,3,0,0,1-.28-1.43Z"/><path class="cls-1" d="M24,28.11h4.1v1H25.15v1.32H27.7v1H25.15v2.41H24Z"/><path class="cls-1" d="M29.89,28.1h1.36l2,5.76H32l-.38-1.18H29.48l-.39,1.18H27.83Zm-.08,3.58h1.47l-.73-2.26Z"/><path class="cls-1" d="M34.41,28.7a2.68,2.68,0,0,1,3.87.24A2.08,2.08,0,0,1,38.67,30h-1.2a1.63,1.63,0,0,0-.29-.63,1.18,1.18,0,0,0-1-.37,1.17,1.17,0,0,0-1,.53,2.58,2.58,0,0,0-.37,1.5,2.26,2.26,0,0,0,.39,1.45,1.22,1.22,0,0,0,1,.48,1.12,1.12,0,0,0,.94-.41,1.81,1.81,0,0,0,.3-.67h1.19a2.6,2.6,0,0,1-.79,1.53,2.3,2.3,0,0,1-1.63.59,2.44,2.44,0,0,1-1.93-.8,3.21,3.21,0,0,1-.7-2.19A3.18,3.18,0,0,1,34.41,28.7Z"/><path class="cls-1" d="M43.65,28.1v1H41.93v4.74H40.72V29.12H39v-1Z"/><path class="cls-1" d="M44.2,28.1h1.22v3.53a2,2,0,0,0,.14.87,1.17,1.17,0,0,0,1.89,0,2,2,0,0,0,.14-.87V28.1h1.22v3.54a3,3,0,0,1-.28,1.43,2.12,2.12,0,0,1-2,.94,2.13,2.13,0,0,1-2-.94,3,3,0,0,1-.28-1.43Z"/><path class="cls-1" d="M53.5,28.25a1.42,1.42,0,0,1,.54.4,1.81,1.81,0,0,1,.29.48,1.62,1.62,0,0,1,.11.6,1.74,1.74,0,0,1-.21.81,1.16,1.16,0,0,1-.68.56,1.08,1.08,0,0,1,.56.46,1.89,1.89,0,0,1,.17.9v.39a2.83,2.83,0,0,0,0,.54.48.48,0,0,0,.22.33v.14H53.2c0-.13-.06-.23-.08-.31a2.94,2.94,0,0,1-.05-.5v-.54a1.1,1.1,0,0,0-.19-.73,1,1,0,0,0-.68-.18H51v2.26H49.84V28.1h2.75A2.51,2.51,0,0,1,53.5,28.25ZM51,29.1v1.55h1.29a1.38,1.38,0,0,0,.58-.09.65.65,0,0,0,.34-.65.73.73,0,0,0-.33-.7,1.19,1.19,0,0,0-.56-.1Z"/><path class="cls-1" d="M59.68,29.12h-3v1.22h2.8v1h-2.8v1.48h3.19v1H55.46V28.1h4.22Z"/><path class="cls-1" d="M64.29,28.25a1.42,1.42,0,0,1,.54.4,1.81,1.81,0,0,1,.29.48,1.62,1.62,0,0,1,.11.6,1.74,1.74,0,0,1-.21.81,1.16,1.16,0,0,1-.68.56,1.08,1.08,0,0,1,.56.46,1.89,1.89,0,0,1,.17.9v.39a2.83,2.83,0,0,0,0,.54.48.48,0,0,0,.22.33v.14H64c0-.13-.06-.23-.08-.31a2.94,2.94,0,0,1-.05-.5v-.54a1.1,1.1,0,0,0-.19-.73A1,1,0,0,0,63,31.6H61.8v2.26H60.63V28.1h2.75A2.51,2.51,0,0,1,64.29,28.25Zm-2.49.85v1.55H63.1a1.38,1.38,0,0,0,.58-.09.65.65,0,0,0,.34-.65.73.73,0,0,0-.33-.7,1.19,1.19,0,0,0-.56-.1Z"/><path class="cls-1" d="M72.71,33.34a3,3,0,0,1-3.77,0A3.11,3.11,0,0,1,68.06,31a3,3,0,0,1,.87-2.37,3,3,0,0,1,3.77,0A3.06,3.06,0,0,1,73.58,31,3.11,3.11,0,0,1,72.71,33.34ZM72,32.47a2.88,2.88,0,0,0,0-3,1.37,1.37,0,0,0-1.13-.53,1.39,1.39,0,0,0-1.14.53,2.85,2.85,0,0,0,0,3,1.39,1.39,0,0,0,1.14.53A1.37,1.37,0,0,0,72,32.47Z"/><path class="cls-1" d="M74.34,28.11h4.1v1H75.53v1.32h2.55v1H75.53v2.41H74.34Z"/><path class="cls-1" d="M85.3,28.1v1H83.58v4.74H82.37V29.12H80.64v-1Z"/><path class="cls-1" d="M90.14,33.34a3,3,0,0,1-3.77,0A3.11,3.11,0,0,1,85.49,31a3,3,0,0,1,.87-2.37,3,3,0,0,1,3.77,0A3.06,3.06,0,0,1,91,31,3.11,3.11,0,0,1,90.14,33.34Zm-.75-.87a2.88,2.88,0,0,0,0-3,1.37,1.37,0,0,0-1.13-.53,1.39,1.39,0,0,0-1.14.53,2.85,2.85,0,0,0,0,3,1.39,1.39,0,0,0,1.14.53A1.37,1.37,0,0,0,89.39,32.47Z"/><path class="cls-1" d="M95.45,28.25a1.42,1.42,0,0,1,.54.4,1.81,1.81,0,0,1,.29.48,1.62,1.62,0,0,1,.11.6,1.74,1.74,0,0,1-.21.81,1.16,1.16,0,0,1-.68.56,1.08,1.08,0,0,1,.56.46,1.89,1.89,0,0,1,.17.9v.39a2.83,2.83,0,0,0,0,.54.48.48,0,0,0,.22.33v.14H95.15c0-.13-.06-.23-.08-.31a2.94,2.94,0,0,1-.05-.5v-.54a1.1,1.1,0,0,0-.19-.73,1,1,0,0,0-.68-.18H93v2.26H91.79V28.1h2.75A2.51,2.51,0,0,1,95.45,28.25ZM93,29.1v1.55h1.29a1.38,1.38,0,0,0,.58-.09.65.65,0,0,0,.34-.65.73.73,0,0,0-.33-.7,1.19,1.19,0,0,0-.56-.1Z"/><path class="cls-1" d="M97.93,28.7a2.68,2.68,0,0,1,3.87.24,2.08,2.08,0,0,1,.39,1.07H101a1.63,1.63,0,0,0-.29-.63,1.18,1.18,0,0,0-1-.37,1.17,1.17,0,0,0-1,.53,2.58,2.58,0,0,0-.37,1.5,2.26,2.26,0,0,0,.39,1.45,1.22,1.22,0,0,0,1,.48,1.12,1.12,0,0,0,.94-.41,1.81,1.81,0,0,0,.3-.67h1.19a2.6,2.6,0,0,1-.79,1.53,2.3,2.3,0,0,1-1.63.59,2.44,2.44,0,0,1-1.93-.8,3.21,3.21,0,0,1-.7-2.19A3.18,3.18,0,0,1,97.93,28.7Z"/><path class="cls-1" d="M103,33.86V28.1h1.19V30.3h2.24V28.1h1.19v5.76h-1.19V31.29h-2.24v2.57Z"/><path class="cls-1" d="M114.85,28.1v1h-1.72v4.74h-1.21V29.12h-1.73v-1Z"/><path class="cls-1" d="M119.69,33.34a3,3,0,0,1-3.77,0A3.11,3.11,0,0,1,115,31a3,3,0,0,1,.87-2.37,3,3,0,0,1,3.77,0,3.06,3.06,0,0,1,.87,2.37A3.11,3.11,0,0,1,119.69,33.34Zm-.75-.87a2.88,2.88,0,0,0,0-3,1.37,1.37,0,0,0-1.13-.53,1.39,1.39,0,0,0-1.14.53,2.85,2.85,0,0,0,0,3,1.39,1.39,0,0,0,1.14.53A1.37,1.37,0,0,0,118.94,32.47Z"/><path class="cls-1" d="M125.75,33.34a3,3,0,0,1-3.77,0A3.11,3.11,0,0,1,121.1,31,3,3,0,0,1,122,28.6a3,3,0,0,1,3.77,0,3.06,3.06,0,0,1,.87,2.37A3.11,3.11,0,0,1,125.75,33.34Zm-.75-.87a2.88,2.88,0,0,0,0-3,1.37,1.37,0,0,0-1.13-.53,1.39,1.39,0,0,0-1.14.53,2.85,2.85,0,0,0,0,3,1.39,1.39,0,0,0,1.14.53A1.37,1.37,0,0,0,125,32.47Z"/><path class="cls-1" d="M127.38,28.1h1.2v4.72h2.87v1h-4.08Z"/><path class="cls-1" d="M133,32.08a1.16,1.16,0,0,0,.22.59,1.28,1.28,0,0,0,1,.36,2.2,2.2,0,0,0,.71-.09.67.67,0,0,0,.51-.67.49.49,0,0,0-.25-.44,2.75,2.75,0,0,0-.8-.27l-.62-.14a3.87,3.87,0,0,1-1.26-.44,1.4,1.4,0,0,1-.58-1.25,1.65,1.65,0,0,1,.57-1.28,2.43,2.43,0,0,1,1.67-.51,2.56,2.56,0,0,1,1.57.48,1.72,1.72,0,0,1,.68,1.4h-1.16a.82.82,0,0,0-.46-.74,1.58,1.58,0,0,0-.72-.15,1.37,1.37,0,0,0-.76.19.59.59,0,0,0-.28.52.49.49,0,0,0,.28.46,3.45,3.45,0,0,0,.76.24l1,.24a2.57,2.57,0,0,1,1,.42,1.41,1.41,0,0,1,.51,1.18,1.65,1.65,0,0,1-.61,1.31,2.57,2.57,0,0,1-1.72.52,2.81,2.81,0,0,1-1.79-.51,1.7,1.7,0,0,1-.65-1.41Z"/></g></g></svg>