<svg xmlns="http://www.w3.org/2000/svg" viewBox="0 0 150.88 36.84"><defs><style>.cls-1{fill:#112252;}</style></defs><title>SafetyTubsDark</title><g id="Layer_2" data-name="Layer 2"><g id="Layer_3" data-name="Layer 3"><path class="cls-1" d="M84.16,5.1C84,5.13,74.53,1.43,70.58,15h-.09C66.18,1.39,57,5.13,56.91,5.1s12.25.78,13.18,10C67.22,7.65,57,8.08,56.91,8s13.85.68,13.24,11.08a.33.33,0,0,0,.34.34h.1a.34.34,0,0,0,.34-.34C70.63,8.28,84.34,8,84.16,8s-10.31-.4-13.18,7c.92-9.21,13.36-10,13.18-10"/><path class="cls-1" d="M70.53,7.39a1.07,1.07,0,1,0-1.07-1.07,1.07,1.07,0,0,0,1.07,1.07"/><path class="cls-1" d="M70.53,3.58a.64.64,0,1,0-.64-.64.64.64,0,0,0,.64.64"/><path class="cls-1" d="M70.53.77a.39.39,0,1,0-.39-.39.39.39,0,0,0,.39.39"/><path class="cls-1" d="M.35,36.13c-.33-.18-.35-.29-.35-1,0-1.32.09-2.37.12-2.79s.07-.42.19-.42.17.08.17.29a5.15,5.15,0,0,0,.07,1,3.26,3.26,0,0,0,3.51,2.69,3.34,3.34,0,0,0,3.39-3.5c0-1.82-.69-2.87-2.72-4.74l-1.07-1C1.14,24.36.57,22.73.57,20.94A4.54,4.54,0,0,1,5.47,16.2a8.23,8.23,0,0,1,2.2.26,3.51,3.51,0,0,0,.83.13c.19,0,.24.05.24.18s-.1,1-.1,2.79c0,.42,0,.61-.17.61s-.16-.13-.19-.34A5.06,5.06,0,0,0,8,18.52c-.14-.29-.78-1.39-3-1.39a2.84,2.84,0,0,0-2.91,3.05c0,1.5.62,2.45,2.89,4.42l.66.58c2.8,2.45,3.46,4.08,3.46,6.19a5.69,5.69,0,0,1-2,4.37,5.78,5.78,0,0,1-3.58,1.1,6.59,6.59,0,0,1-3.18-.71"/><path class="cls-1" d="M17.42,20c.26-.74.36-.87.5-.87s.28.32.5.82c.38.95,3.72,10.19,5,13.58.76,2,1.33,2.29,1.78,2.45a2.66,2.66,0,0,0,.83.13c.12,0,.26,0,.26.18s-.24.18-.47.18-1.85,0-3.29-.05c-.4,0-.74,0-.74-.16s0-.11.14-.16a.44.44,0,0,0,.19-.61l-1.87-5.13c0-.11-.07-.13-.19-.13H15.24c-.09,0-.17.05-.21.18L13.84,34a5.1,5.1,0,0,0-.31,1.5c0,.45.35.61.71.61h.19c.17,0,.21.08.21.18s-.12.18-.31.18c-.5,0-1.63-.08-1.88-.08s-1.25.08-2.11.08c-.26,0-.4-.05-.4-.18a.19.19,0,0,1,.19-.18,5.53,5.53,0,0,0,.62-.05c.95-.13,1.35-.92,1.75-2.05l4.9-14m2.32,9.32c.1,0,.1-.05.07-.16L17.75,23c-.12-.34-.24-.34-.35,0l-1.94,6.13c0,.11,0,.16.07.16Z"/><path class="cls-1" d="M28.43,26c0-3.48,0-4.11,0-4.82s-.16-1.13-.85-1.24a6.45,6.45,0,0,0-.71-.05.21.21,0,0,1-.17-.18c0-.13.1-.18.33-.18.95,0,2.25.05,2.37.05.4,0,4.93,0,5.4,0a3.83,3.83,0,0,0,.95-.11c.12,0,.21-.13.28-.13s.14.1.14.21S36,20,36,20.63c0,.21,0,1.21-.1,1.47,0,.1-.09.24-.19.24s-.16-.11-.16-.26a2.6,2.6,0,0,0-.19-.84,1.51,1.51,0,0,0-1.42-.66l-3.41-.05c-.12,0-.17.05-.17.24v6.11c0,.13,0,.21.14.21l2.85,0c.35,0,.66,0,.94,0,.5-.05.78-.13,1-.4s.19-.24.26-.24.12.08.12.18a10.4,10.4,0,0,0-.19,1.24c0,.45-.07,1.34-.07,1.5s0,.45-.19.45-.14-.11-.14-.21a3.59,3.59,0,0,0-.14-.82c-.09-.31-.43-.61-1.06-.71s-3-.05-3.34-.05c-.12,0-.14.05-.14.21V30c0,2.21,0,4,.1,4.84.07.66.19,1.08.76,1.19a7.73,7.73,0,0,0,.95.11.17.17,0,0,1,.17.18c0,.1-.09.18-.33.18-1.16,0-2.51-.08-2.61-.08s-1.42.08-2.06.08c-.21,0-.33-.05-.33-.18a.17.17,0,0,1,.17-.18,5.5,5.5,0,0,0,.64-.11c.4-.08.45-.53.55-1.19.12-.92.12-2.69.12-4.84V26"/><path class="cls-1" d="M40.52,26c0-3.48,0-4.11,0-4.82s-.17-1.13-.85-1.24a6.44,6.44,0,0,0-.71-.05.21.21,0,0,1-.16-.18c0-.13.09-.18.33-.18.95,0,2.3.05,2.42.05s4.5,0,5,0a8.66,8.66,0,0,0,.95-.13c.09,0,.19-.1.28-.1s.09.1.09.21-.12.42-.16,1.05c0,.21-.07,1.21-.12,1.47,0,.1-.09.24-.19.24s-.17-.11-.17-.29a2.68,2.68,0,0,0-.12-.79c-.14-.37-.35-.53-1.49-.68-.36-.05-2.77-.08-3-.08s-.12.08-.12.24v6.08c0,.16,0,.24.12.24s3,0,3.48-.05.81-.08,1-.32.24-.29.31-.29.12.05.12.18-.12.5-.17,1.24c0,.45-.09,1.29-.09,1.45s0,.42-.19.42-.14-.08-.14-.21a2.17,2.17,0,0,0-.1-.74c-.07-.31-.26-.58-1.06-.68-.57-.08-2.8-.11-3.15-.11-.12,0-.14.08-.14.16V30c0,.76,0,3.37,0,3.82,0,1.5.43,1.79,2.49,1.79A6.29,6.29,0,0,0,47,35.34a1.69,1.69,0,0,0,.95-1.55c0-.26.09-.34.21-.34s.14.18.14.34A20.37,20.37,0,0,1,48,35.95c-.14.58-.36.58-1.16.58-1.56,0-2.77-.05-3.63-.08s-1.42-.05-1.73-.05c0,0-.45,0-.9,0s-.88.05-1.21.05-.33-.05-.33-.18a.17.17,0,0,1,.17-.18,5.53,5.53,0,0,0,.64-.11c.4-.08.45-.53.54-1.19.12-.92.12-2.69.12-4.84V26"/><path class="cls-1" d="M57.53,30c0,2.16,0,3.93.09,4.84.07.66.17,1.08.8,1.19a7.28,7.28,0,0,0,.95.11c.14,0,.17.1.17.18s-.09.18-.33.18c-1.14,0-2.46-.08-2.58-.08s-1.54.08-2.16.08c-.24,0-.33-.05-.33-.18a.15.15,0,0,1,.17-.16,2.54,2.54,0,0,0,.62-.11c.43-.11.55-.55.62-1.21.1-.92.1-2.69.1-4.84v-9.4l-3,.05c-1.3,0-1.8.18-2.11.71a3.76,3.76,0,0,0-.33.71c0,.18-.12.21-.21.21a.17.17,0,0,1-.14-.18c0-.24.43-2.24.45-2.42s.14-.42.21-.42a6.54,6.54,0,0,0,.92.26,15.34,15.34,0,0,0,1.64.11h7.87a9.07,9.07,0,0,0,1.49-.11c.31-.05.5-.1.59-.1s.1.13.1.26c0,.69-.07,2.29-.07,2.55s-.1.29-.19.29-.14-.08-.17-.39l0-.24c-.07-.68-.52-1.18-2.51-1.24l-2.61-.05V30"/><path class="cls-1" d="M69.69,30.66a4.34,4.34,0,0,0-.45-2.29c-.17-.34-3-5.32-3.7-6.5a5.63,5.63,0,0,0-1.38-1.63,1.91,1.91,0,0,0-.88-.32.22.22,0,0,1-.21-.21c0-.11.07-.16.26-.16.4,0,2,.05,2.06.05s1-.05,1.8-.05c.24,0,.29.05.29.16s-.14.16-.33.24a.38.38,0,0,0-.26.37,2,2,0,0,0,.28.87l3.79,7c.43-.95,3-5.74,3.41-6.48a2.57,2.57,0,0,0,.35-1.16c0-.32-.09-.5-.33-.58s-.31-.16-.31-.26.12-.13.33-.13c.54,0,1.28.05,1.45.05s1.63-.05,2-.05c.14,0,.26.05.26.13a.25.25,0,0,1-.26.24,2,2,0,0,0-1,.29,3.81,3.81,0,0,0-1,1.11c-.69.89-3.63,6.16-4.05,7.11a4.93,4.93,0,0,0-.26,2.24v1.92c0,.37,0,1.32.07,2.24,0,.66.19,1.08.81,1.19a7.27,7.27,0,0,0,.95.11.17.17,0,0,1,.16.18c0,.1-.12.18-.33.18-1.16,0-2.51-.08-2.63-.08s-1.42.08-2,.08c-.24,0-.33-.05-.33-.18a.17.17,0,0,1,.17-.18A2.52,2.52,0,0,0,69,36c.42-.1.57-.53.62-1.19,0-.92,0-1.87,0-2.24V30.66"/><path class="cls-1" d="M93.08,28.84c0,2.53,0,4.61.12,5.71.07.77.21,1.34.92,1.45a9.36,9.36,0,0,0,1.07.11c.14,0,.19.08.19.16s-.12.21-.38.21c-1.3,0-2.8-.08-2.91-.08s-1.61.08-2.32.08c-.26,0-.38-.05-.38-.21s0-.16.19-.16a3.31,3.31,0,0,0,.71-.11c.47-.1.59-.68.69-1.45.12-1.1.12-3.19.12-5.71V17.7l-3.51.05c-1.47,0-2,.21-2.42.84a4.9,4.9,0,0,0-.4.82c-.07.21-.14.26-.24.26s-.12-.08-.12-.24.47-2.53.52-2.74.14-.5.24-.5a4.14,4.14,0,0,0,1,.31c.69.08,1.59.13,1.87.13H97a8.52,8.52,0,0,0,1.68-.13c.36-.05.57-.13.66-.13s.12.16.12.31c0,.79-.07,2.61-.07,2.9s-.07.34-.17.34-.17-.08-.19-.45l0-.29c-.07-.79-.64-1.39-2.91-1.45l-3-.05V28.84"/><path class="cls-1" d="M102.2,26c0-3.48,0-4.11,0-4.82S102,20.07,101.3,20a6.51,6.51,0,0,0-.71-.05.21.21,0,0,1-.16-.18c0-.13.09-.18.33-.18.95,0,2.2.05,2.39.05s1.49-.05,2.11-.05c.24,0,.35.05.35.18a.21.21,0,0,1-.19.18,2.23,2.23,0,0,0-.52.05c-.55.11-.66.5-.71,1.24s0,1.34,0,4.82v3.13c0,3.24.64,4.58,1.54,5.47a3.82,3.82,0,0,0,3.11,1.21A4.1,4.1,0,0,0,112,34.26c1-1.29,1.19-3.13,1.19-5.42V26c0-3.48,0-4.11,0-4.82s-.14-1.13-.83-1.24a6.49,6.49,0,0,0-.71-.05.19.19,0,0,1-.16-.18c0-.13.09-.18.33-.18.92,0,2.13.05,2.25.05s1.14-.05,1.75-.05c.23,0,.33.05.33.18a.19.19,0,0,1-.17.18,2.21,2.21,0,0,0-.52.05c-.57.13-.69.5-.74,1.24s0,1.34,0,4.82v2.4c0,2.42-.29,5.13-1.94,6.71a5.9,5.9,0,0,1-4.36,1.63A6.07,6.07,0,0,1,104,35.18c-1-1.05-1.82-2.61-1.82-5.87V26"/><path class="cls-1" d="M120,26c0-3.48,0-4.11,0-4.82s-.17-1.18-.85-1.29a6.14,6.14,0,0,0-.71-.05c-.07,0-.17-.05-.17-.13s.1-.18.33-.18c.95,0,2.3.05,2.42.05.5,0,1.47-.05,2.44-.05,3.48,0,4.38,2.24,4.38,3.42,0,1.76-1,2.87-2.11,3.92a5.16,5.16,0,0,1,3.67,4.66,4.86,4.86,0,0,1-5.24,5c-.38,0-1.14,0-1.8-.08L121,36.4s-.43,0-.85,0-.92.05-1.25.05-.33-.05-.33-.18,0-.13.16-.13a5.55,5.55,0,0,0,.64-.1c.4-.08.45-.58.55-1.24.12-.92.12-2.69.12-4.84V26m1.8.47c0,.16,0,.21.14.24a6,6,0,0,0,1.28.1c1.16,0,1.61-.05,2-.58a3.66,3.66,0,0,0,.81-2.39c0-1.71-.86-3.61-2.94-3.61a5.54,5.54,0,0,0-1.06.11c-.19.05-.26.1-.26.23Zm0,2.47c0,1.74,0,4.42,0,4.76.07,1.08.07,1.34.71,1.68a4.48,4.48,0,0,0,1.82.32c1.37,0,3.06-.58,3.06-3.45a5.09,5.09,0,0,0-2-4.08,4.06,4.06,0,0,0-1.87-.58,16.28,16.28,0,0,0-1.64-.05c-.07,0-.12.05-.12.16Z"/><path class="cls-1" d="M132.22,36.16c-.28-.16-.31-.24-.31-.84,0-1.11.09-2,.12-2.37s0-.37.17-.37.19.08.19.26a3.66,3.66,0,0,0,.07.82c.33,1.63,1.9,2.21,3.29,2.21a2.84,2.84,0,0,0,3.13-3c0-1.61-.78-2.37-2.63-3.9l-.95-.79c-2.25-1.87-3-3.24-3-4.79,0-2.63,1.87-4.21,4.62-4.21a9.25,9.25,0,0,1,2.16.26,2.4,2.4,0,0,0,.74.11c.16,0,.21,0,.21.16s-.09.84-.09,2.37c0,.34,0,.5-.17.5s-.16-.1-.19-.29a4.37,4.37,0,0,0-.31-1.11c-.14-.27-.83-1.11-2.7-1.11-1.52,0-2.77.84-2.77,2.42,0,1.42.64,2.24,2.7,3.79l.59.45c2.54,1.92,3.41,3.48,3.41,5.4A4.5,4.5,0,0,1,138.57,36a5.87,5.87,0,0,1-3.32.79,7,7,0,0,1-3-.61"/><path class="cls-1" d="M146.24,18.25c0-.82,0-1,0-1.13s-.05-.26-.23-.3l-.18,0,0,0,.08,0,.59,0,.62,0a1.62,1.62,0,0,1,1,.23.91.91,0,0,1,.36.71,1.62,1.62,0,0,1-.64,1.21c.43.55.79,1,1.09,1.35a1.09,1.09,0,0,0,.64.38l.2,0,0,0s0,0-.13,0h-.37a1.05,1.05,0,0,1-.56-.1,2.7,2.7,0,0,1-.71-.77c-.22-.29-.47-.64-.57-.78l-.07,0h-.65l0,0v.13c0,.51,0,.92,0,1.14s0,.27.21.29l.24,0,0,0-.08,0-.65,0-.49,0-.08,0,0,0,.16,0c.11,0,.13-.14.15-.29s0-.63,0-1.14v-.92m.42.45,0,.06a1.46,1.46,0,0,0,.55.08.7.7,0,0,0,.39-.1,1,1,0,0,0,.32-.81c0-.66-.35-1.05-.91-1.05a1.62,1.62,0,0,0-.35,0l0,.06Z"/><path class="cls-1" d="M150.79,18.84h-.09a3.16,3.16,0,1,1-.93-2.24,3.15,3.15,0,0,1,.93,2.24h.19a3.35,3.35,0,1,0-3.35,3.35,3.35,3.35,0,0,0,3.35-3.35h-.09"/></g></g></svg>