<svg xmlns="http://www.w3.org/2000/svg" viewBox="0 0 63.77 59.31"><defs><style>.cls-1{fill:#fff;}</style></defs><title>YanexIndustriesLight</title><g id="Layer_2" data-name="Layer 2"><g id="Layer_3" data-name="Layer 3"><path class="cls-1" d="M43.27,48.42C45.45,31.57,62.73,18.81,63.24,0H42.09c-.25,9.37-4.75,17.19-9.43,24.77C37.39,32.42,42.3,39.85,43.27,48.42Z"/><path class="cls-1" d="M42.62,51.89C42.94,33,23,20.08,22.42,0H1.27c.54,20.08,20.2,33.26,20.2,51.89Z"/><path class="cls-1" d="M1.77,59.2v-2q-.5-.78-.94-1.53T0,54.18H.83q.28.59.62,1.21t.7,1.18q.35-.57.7-1.18t.62-1.21h.78q-.39.72-.83,1.47t-.93,1.52v2Z"/><path class="cls-1" d="M7.69,59.2c-.08-.22-.16-.43-.23-.64l-.23-.64H5L4.51,59.2H3.77l.54-1.47q.25-.68.5-1.29t.48-1.16q.24-.55.5-1.1h.64q.26.54.5,1.1t.48,1.16q.24.61.5,1.29l.54,1.47ZM7,57.34q-.23-.63-.46-1.22T6.1,55q-.25.54-.48,1.13t-.45,1.22Z"/><path class="cls-1" d="M12.58,59.2l-.37-.6-.45-.69-.5-.73-.51-.71-.49-.65-.44-.54V59.2H9.14v-5H9.7q.34.36.73.84t.77,1q.38.51.72,1t.57.88V54.18h.69v5Z"/><path class="cls-1" d="M14.42,59.2v-5h3.06v.6H15.12v1.49h2.1v.59h-2.1V58.6h2.54v.6Z"/><path class="cls-1" d="M21.57,59.2c-.07-.14-.16-.31-.26-.48L21,58.17l-.38-.57-.38-.54-.38.54-.37.57-.33.55q-.16.26-.26.48H18.1a14,14,0,0,1,.76-1.3q.43-.66.92-1.35l-1.61-2.37H19L20.21,56l1.22-1.87h.8l-1.58,2.34q.49.7.93,1.37a14.88,14.88,0,0,1,.77,1.31Z"/><path class="cls-1" d="M24.8,54.18h.7v5h-.7Z"/><path class="cls-1" d="M30.19,59.2l-.37-.6-.45-.69-.5-.73-.51-.71-.49-.65-.44-.54V59.2h-.69v-5h.56q.34.36.73.84t.77,1q.38.51.72,1t.57.88V54.18h.69v5Z"/><path class="cls-1" d="M36.15,56.68a2.92,2.92,0,0,1-.2,1.13,2.1,2.1,0,0,1-.57.8,2.43,2.43,0,0,1-.88.47,3.9,3.9,0,0,1-1.13.16l-.67,0a4,4,0,0,1-.66-.1V54.25a3.92,3.92,0,0,1,.66-.1l.67,0a3.87,3.87,0,0,1,1.13.16,2.42,2.42,0,0,1,.88.47,2.09,2.09,0,0,1,.57.8A2.93,2.93,0,0,1,36.15,56.68Zm-2.73,1.94a1.95,1.95,0,1,0,0-3.88h-.69V58.6h.69Z"/><path class="cls-1" d="M39.06,59.31a2.19,2.19,0,0,1-.86-.15,1.59,1.59,0,0,1-.59-.42,1.69,1.69,0,0,1-.34-.63,2.62,2.62,0,0,1-.11-.78V54.18h.7v3.07a1.52,1.52,0,0,0,.33,1.09,1.16,1.16,0,0,0,.87.34,1.37,1.37,0,0,0,.49-.08,1,1,0,0,0,.38-.26,1.18,1.18,0,0,0,.25-.45,2.13,2.13,0,0,0,.09-.65V54.18H41v3.15a2.62,2.62,0,0,1-.11.78,1.67,1.67,0,0,1-.35.63,1.63,1.63,0,0,1-.59.42A2.16,2.16,0,0,1,39.06,59.31Z"/><path class="cls-1" d="M43.34,58.7q1.1,0,1.1-.75a.76.76,0,0,0-.1-.39.94.94,0,0,0-.26-.28,1.82,1.82,0,0,0-.38-.21l-.45-.17a4.77,4.77,0,0,1-.52-.21,1.82,1.82,0,0,1-.43-.28A1.2,1.2,0,0,1,42,56a1.27,1.27,0,0,1-.1-.54,1.26,1.26,0,0,1,.45-1,1.89,1.89,0,0,1,1.24-.37,3.27,3.27,0,0,1,.83.1,1.89,1.89,0,0,1,.55.21l-.22.57a2,2,0,0,0-.45-.18,2.45,2.45,0,0,0-.7-.09,1.55,1.55,0,0,0-.38,0,1,1,0,0,0-.3.13.64.64,0,0,0-.21.22.63.63,0,0,0-.08.32.67.67,0,0,0,.08.34.78.78,0,0,0,.22.24,1.93,1.93,0,0,0,.34.19l.42.17.6.26a1.94,1.94,0,0,1,.47.31,1.24,1.24,0,0,1,.31.43,1.51,1.51,0,0,1,.11.61,1.18,1.18,0,0,1-.48,1,2.25,2.25,0,0,1-1.36.36,3.49,3.49,0,0,1-.55,0l-.45-.09L42,59.06,41.79,59l.21-.58a3.07,3.07,0,0,0,.51.21A2.61,2.61,0,0,0,43.34,58.7Z"/><path class="cls-1" d="M49.38,54.18v.61H47.8V59.2h-.7V54.79H45.52v-.61Z"/><path class="cls-1" d="M52.58,57.1l.29.38c.12.16.24.33.37.52s.25.39.37.6a5.85,5.85,0,0,1,.32.6h-.77c-.1-.18-.2-.37-.32-.56s-.23-.37-.34-.54l-.34-.48-.31-.39h-1v2h-.7V54.25a3.92,3.92,0,0,1,.66-.1l.67,0a2.75,2.75,0,0,1,1.61.4,1.37,1.37,0,0,1,.55,1.19,1.39,1.39,0,0,1-.26.85A1.55,1.55,0,0,1,52.58,57.1Zm-1.07-2.35-.69,0v1.89h.5a5.34,5.34,0,0,0,.65,0,1.49,1.49,0,0,0,.49-.14.74.74,0,0,0,.31-.29,1,1,0,0,0,.11-.49.94.94,0,0,0-.11-.47.81.81,0,0,0-.29-.3,1.3,1.3,0,0,0-.43-.15A3.09,3.09,0,0,0,51.51,54.74Z"/><path class="cls-1" d="M54.68,54.18h.7v5h-.7Z"/><path class="cls-1" d="M56.63,59.2v-5h3.06v.6H57.33v1.49h2.1v.59h-2.1V58.6h2.54v.6Z"/><path class="cls-1" d="M61.93,58.7q1.1,0,1.1-.75a.76.76,0,0,0-.1-.39.94.94,0,0,0-.26-.28,1.82,1.82,0,0,0-.38-.21l-.45-.17a4.77,4.77,0,0,1-.52-.21,1.82,1.82,0,0,1-.43-.28A1.2,1.2,0,0,1,60.6,56a1.27,1.27,0,0,1-.1-.54,1.26,1.26,0,0,1,.45-1,1.89,1.89,0,0,1,1.24-.37,3.27,3.27,0,0,1,.83.1,1.89,1.89,0,0,1,.55.21l-.22.57a2,2,0,0,0-.45-.18,2.45,2.45,0,0,0-.7-.09,1.55,1.55,0,0,0-.38,0,1,1,0,0,0-.3.13.64.64,0,0,0-.21.22.63.63,0,0,0-.08.32.67.67,0,0,0,.08.34.78.78,0,0,0,.22.24,1.93,1.93,0,0,0,.34.19l.42.17.6.26a1.94,1.94,0,0,1,.47.31,1.24,1.24,0,0,1,.31.43,1.51,1.51,0,0,1,.11.61,1.18,1.18,0,0,1-.48,1,2.25,2.25,0,0,1-1.36.36,3.49,3.49,0,0,1-.55,0l-.45-.09-.34-.12L60.38,59l.21-.58a3.07,3.07,0,0,0,.51.21A2.61,2.61,0,0,0,61.93,58.7Z"/></g></g></svg>